/* XPM */
static const char * battery_charging_xpm[] = {
"50 31 797 2",
"  	c None",
". 	c #FEFCFD",
"+ 	c #F7FAED",
"@ 	c #E8EFD3",
"# 	c #E7F1D1",
"$ 	c #E8F1D7",
"% 	c #E4F2DA",
"& 	c #E3F3D9",
"* 	c #E3F3D8",
"= 	c #E3F2D9",
"- 	c #E3F3DA",
"; 	c #E3F3DC",
"> 	c #EFFBEA",
", 	c #F8FCF7",
"' 	c #FEF9FD",
") 	c #FEFAFC",
"! 	c #FCFFF6",
"~ 	c #FDFEFB",
"{ 	c #A9D46F",
"] 	c #85B738",
"^ 	c #74AE11",
"/ 	c #72B40B",
"( 	c #73B60E",
"_ 	c #74B512",
": 	c #73B411",
"< 	c #73B50F",
"[ 	c #72B310",
"} 	c #73B412",
"| 	c #73B414",
"1 	c #80BD29",
"2 	c #9DC667",
"3 	c #F9FDEE",
"4 	c #FFF7FF",
"5 	c #F9FAED",
"6 	c #FCFEF6",
"7 	c #6EBC0A",
"8 	c #6EBF06",
"9 	c #70C508",
"0 	c #6CC209",
"a 	c #6BC211",
"b 	c #70C10B",
"c 	c #70C00A",
"d 	c #70C00B",
"e 	c #6FC109",
"f 	c #70C109",
"g 	c #6DBB0D",
"h 	c #70C012",
"i 	c #6EC401",
"j 	c #71C20F",
"k 	c #70C10E",
"l 	c #6CC007",
"m 	c #6FC608",
"n 	c #6AC00A",
"o 	c #73C60F",
"p 	c #6DC005",
"q 	c #6EC008",
"r 	c #6FC104",
"s 	c #71C00A",
"t 	c #6FC005",
"u 	c #70C10A",
"v 	c #70C00C",
"w 	c #6DC008",
"x 	c #78B713",
"y 	c #EFFBE2",
"z 	c #FFFCFE",
"A 	c #FEFFF8",
"B 	c #FDFEF9",
"C 	c #6FBE0B",
"D 	c #6FBE0E",
"E 	c #6FBE0D",
"F 	c #72BF0F",
"G 	c #72BE0F",
"H 	c #70BF0C",
"I 	c #77C70E",
"J 	c #70BD07",
"K 	c #73B710",
"L 	c #75B612",
"M 	c #76BF0A",
"N 	c #6AB500",
"O 	c #6EB80B",
"P 	c #68B204",
"Q 	c #77C207",
"R 	c #6FBE0F",
"S 	c #70C006",
"T 	c #70BD11",
"U 	c #72BC0F",
"V 	c #72BF08",
"W 	c #6FBE0C",
"X 	c #6DC010",
"Y 	c #7ABC12",
"Z 	c #F0FBE9",
"` 	c #FEFCFB",
" .	c #FDFFFD",
"..	c #FCFEFC",
"+.	c #71BF0E",
"@.	c #6EC002",
"#.	c #80BE33",
"$.	c #B9DEA0",
"%.	c #B5D589",
"&.	c #B5D28C",
"*.	c #B1CE8E",
"=.	c #B1CE8A",
"-.	c #B7D49A",
";.	c #BCE095",
">.	c #6C9D32",
",.	c #64AC11",
"'.	c #71BB0C",
").	c #71BD14",
"!.	c #70BC13",
"~.	c #72C00E",
"{.	c #6DBF0F",
"].	c #6FBD0E",
"^.	c #6DAE0B",
"/.	c #C8E9A4",
"(.	c #FBFDFF",
"_.	c #FFFFFF",
":.	c #F9FAFF",
"<.	c #FCFFFF",
"[.	c #BCCABA",
"}.	c #2F5315",
"|.	c #519306",
"1.	c #6DB50B",
"2.	c #76C015",
"3.	c #71C010",
"4.	c #6FBD0F",
"5.	c #6FBD10",
"6.	c #6FBF0D",
"7.	c #74BD11",
"8.	c #73BC10",
"9.	c #A2CB59",
"0.	c #F9FFF7",
"a.	c #FEF7FA",
"b.	c #FFFCFA",
"c.	c #FBFEFC",
"d.	c #FDFEF7",
"e.	c #FBF9F2",
"f.	c #FAF6F3",
"g.	c #344927",
"h.	c #295301",
"i.	c #58950E",
"j.	c #70B409",
"k.	c #75C10F",
"l.	c #6DBC0C",
"m.	c #70C00E",
"n.	c #70BE10",
"o.	c #70BE0F",
"p.	c #6EBE0E",
"q.	c #70BF0F",
"r.	c #71BE0F",
"s.	c #72BF10",
"t.	c #70BD0E",
"u.	c #7ABA17",
"v.	c #73BE15",
"w.	c #71C110",
"x.	c #74B712",
"y.	c #E4EDD2",
"z.	c #FFFDFE",
"A.	c #FEFEF9",
"B.	c #FBFAF3",
"C.	c #FCFEF7",
"D.	c #F3F8F1",
"E.	c #A49FA8",
"F.	c #102300",
"G.	c #486F0D",
"H.	c #68A40E",
"I.	c #76B80E",
"J.	c #72BC0A",
"K.	c #6FBE0A",
"L.	c #6FBF0C",
"M.	c #70BE0E",
"N.	c #70BF0D",
"O.	c #70BE11",
"P.	c #70BE12",
"Q.	c #6FC20F",
"R.	c #79BA15",
"S.	c #F1FBEA",
"T.	c #FFFCF7",
"U.	c #FDFCFE",
"V.	c #FCFDFC",
"W.	c #6DBD0E",
"X.	c #6EBD0E",
"Y.	c #71BD0F",
"Z.	c #71BE10",
"`.	c #6EBA0A",
" +	c #79BC12",
".+	c #70BC16",
"++	c #68B401",
"@+	c #B3E07F",
"#+	c #FDFCF9",
"$+	c #FFFFFA",
"%+	c #FEFFF9",
"&+	c #FCFDFA",
"*+	c #FEFFFB",
"=+	c #FAFEF6",
"-+	c #ECEEEA",
";+	c #121910",
">+	c #2D4C05",
",+	c #639714",
"'+	c #72B711",
")+	c #76BD17",
"!+	c #70BA11",
"~+	c #72BF14",
"{+	c #6FBD12",
"]+	c #70BD10",
"^+	c #70BD14",
"/+	c #6BBE09",
"(+	c #77BD12",
"_+	c #DCF5D4",
":+	c #EDF6E2",
"<+	c #FBFEFA",
"[+	c #FBFDF8",
"}+	c #6EBD10",
"|+	c #6FBC10",
"1+	c #71BD11",
"2+	c #72BD11",
"3+	c #78BE15",
"4+	c #6DBB07",
"5+	c #70BF10",
"6+	c #89BF3B",
"7+	c #F3FFF6",
"8+	c #FCFCF6",
"9+	c #FBFCF7",
"0+	c #FEFFFC",
"a+	c #FEFEFB",
"b+	c #FAFAFB",
"c+	c #747F73",
"d+	c #163200",
"e+	c #4A820B",
"f+	c #65AE0A",
"g+	c #6CBE0C",
"h+	c #6DBE0D",
"i+	c #6DBB0E",
"j+	c #73BE13",
"k+	c #70BC11",
"l+	c #6FBD11",
"m+	c #72BE18",
"n+	c #71B813",
"o+	c #7CB520",
"p+	c #AAC87D",
"q+	c #F6FBEE",
"r+	c #6EBB10",
"s+	c #6FBC11",
"t+	c #70BB11",
"u+	c #72BC12",
"v+	c #73BC12",
"w+	c #72BB13",
"x+	c #6FBF15",
"y+	c #D6EAC3",
"z+	c #F9FBFC",
"A+	c #FBFBF6",
"B+	c #FDFDFB",
"C+	c #FCFCFC",
"D+	c #FFFEFF",
"E+	c #E2E1E2",
"F+	c #081A02",
"G+	c #325F06",
"H+	c #5EA00E",
"I+	c #6FBA0D",
"J+	c #6FBF09",
"K+	c #6FBE07",
"L+	c #70BD05",
"M+	c #6FBC09",
"N+	c #6FBC0E",
"O+	c #6EBA14",
"P+	c #71C117",
"Q+	c #69BE0A",
"R+	c #6FBC08",
"S+	c #77B310",
"T+	c #DCE9C1",
"U+	c #6EBD12",
"V+	c #6FBA10",
"W+	c #6FBB11",
"X+	c #71BB12",
"Y+	c #73B911",
"Z+	c #73B912",
"`+	c #6ABE0A",
" @	c #6EBE11",
".@	c #A7CA71",
"+@	c #FFFDFF",
"@@	c #FCFFEE",
"#@	c #FFFEFC",
"$@	c #FEFEFC",
"%@	c #FDFDFD",
"&@	c #FCFBFA",
"*@	c #404137",
"=@	c #193108",
"-@	c #4A7B12",
";@	c #6EA717",
">@	c #74B01B",
",@	c #74B420",
"'@	c #73B81B",
")@	c #70B914",
"!@	c #6EBD11",
"~@	c #6EBC13",
"{@	c #6FBC13",
"]@	c #6DB91A",
"^@	c #67B21E",
"/@	c #6DBF04",
"(@	c #6FBD0A",
"_@	c #74BC10",
":@	c #CADBB2",
"<@	c #6FBC14",
"[@	c #6EB60B",
"}@	c #74BA0F",
"|@	c #72BE15",
"1@	c #6ABD14",
"2@	c #6FBC0D",
"3@	c #83B229",
"4@	c #F2F6E7",
"5@	c #FFF9FE",
"6@	c #F8FFEF",
"7@	c #FEFEFD",
"8@	c #F2F3F0",
"9@	c #91978A",
"0@	c #A1B094",
"a@	c #B1C995",
"b@	c #B9D490",
"c@	c #B8D391",
"d@	c #B5D591",
"e@	c #A7D171",
"f@	c #5F9914",
"g@	c #6EB512",
"h@	c #72BE11",
"i@	c #6FBB13",
"j@	c #6FBC12",
"k@	c #70BE0B",
"l@	c #6EBC14",
"m@	c #6EBC11",
"n@	c #70B812",
"o@	c #C9E1A1",
"p@	c #6FBB14",
"q@	c #6DBC11",
"r@	c #74BC13",
"s@	c #75BA11",
"t@	c #69BE0E",
"u@	c #6FB012",
"v@	c #C5DCA1",
"w@	c #FFFDF7",
"x@	c #FCFBF2",
"y@	c #F6FEFB",
"z@	c #FEFDFC",
"A@	c #FFFFFE",
"B@	c #FCFFF9",
"C@	c #FBFFF5",
"D@	c #F9FDF4",
"E@	c #F2F5E8",
"F@	c #557231",
"G@	c #447701",
"H@	c #65AA0B",
"I@	c #6DBA0D",
"J@	c #70BC14",
"K@	c #70BC10",
"L@	c #6FBB15",
"M@	c #6DBC14",
"N@	c #72B81A",
"O@	c #C9E39F",
"P@	c #6DBA0B",
"Q@	c #71BC1B",
"R@	c #71BA11",
"S@	c #75C00D",
"T@	c #70BE0C",
"U@	c #98C355",
"V@	c #F9FFFF",
"W@	c #FFFEF3",
"X@	c #FDFCFA",
"Y@	c #F8FDFF",
"Z@	c #F9F7F9",
"`@	c #FEFEFF",
" #	c #FCFBFE",
".#	c #FCF9FF",
"+#	c #494848",
"@#	c #162D00",
"##	c #467906",
"$#	c #62AA0F",
"%#	c #69B70E",
"&#	c #6EBB14",
"*#	c #70BC0D",
"=#	c #70BB1D",
"-#	c #73BA0D",
";#	c #6DAB1A",
">#	c #E1F1C6",
",#	c #FBFDFE",
"'#	c #FEFDFF",
")#	c #FCFAFF",
"!#	c #FBFFF2",
"~#	c #FEFEFA",
"{#	c #FDFDF3",
"]#	c #FEFEF4",
"^#	c #F8F9EF",
"/#	c #FFFFF8",
"(#	c #7A7E76",
"_#	c #111E02",
":#	c #436411",
"<#	c #5D940F",
"[#	c #6EB615",
"}#	c #70BE17",
"|#	c #70BB0E",
"1#	c #70BC1E",
"2#	c #70BF0E",
"3#	c #6EAF11",
"4#	c #AEDC77",
"5#	c #FEFCFA",
"6#	c #FDFCF8",
"7#	c #FCFEFE",
"8#	c #FDFEFC",
"9#	c #FAFCFC",
"0#	c #F9FDF8",
"a#	c #FBFFF6",
"b#	c #969F8E",
"c#	c #011200",
"d#	c #335C02",
"e#	c #74B513",
"f#	c #74BB12",
"g#	c #6BB50E",
"h#	c #C9E39E",
"i#	c #71BB14",
"j#	c #71BB13",
"k#	c #6DBB16",
"l#	c #6FBC0F",
"m#	c #6FB70A",
"n#	c #7FBD32",
"o#	c #B2E282",
"p#	c #B5BFA4",
"q#	c #A6B197",
"r#	c #A5AF99",
"s#	c #A7B29B",
"t#	c #A4AD9E",
"u#	c #AAB2A9",
"v#	c #A6AFA5",
"w#	c #A0AA99",
"x#	c #F7FEFD",
"y#	c #C1C5BF",
"z#	c #091A00",
"A#	c #325414",
"B#	c #4E8E11",
"C#	c #6EB119",
"D#	c #6FB70E",
"E#	c #74BC18",
"F#	c #70B918",
"G#	c #70BB14",
"H#	c #72B811",
"I#	c #76BC0F",
"J#	c #71BD16",
"K#	c #6EBB0B",
"L#	c #75B81C",
"M#	c #CAE1AA",
"N#	c #72BB14",
"O#	c #6BB914",
"P#	c #70BC0F",
"Q#	c #76BC15",
"R#	c #6AA917",
"S#	c #559011",
"T#	c #3A5D07",
"U#	c #2C5000",
"V#	c #274A00",
"W#	c #254800",
"X#	c #214300",
"Y#	c #234700",
"Z#	c #224000",
"`#	c #6F7E5A",
" $	c #F9F5F3",
".$	c #F8FBFC",
"+$	c #D6D8D9",
"@$	c #0D1907",
"#$	c #2C4A0B",
"$$	c #50821C",
"%$	c #67AC1F",
"&$	c #73BB1B",
"*$	c #6FB811",
"=$	c #72BA19",
"-$	c #70B819",
";$	c #74BA14",
">$	c #6DB70A",
",$	c #6FBB1B",
"'$	c #71B814",
")$	c #C8DFAA",
"!$	c #72BB15",
"~$	c #72BB16",
"{$	c #6DB913",
"]$	c #6EB815",
"^$	c #71B917",
"/$	c #73B817",
"($	c #72B612",
"_$	c #65A613",
":$	c #63A413",
"<$	c #64A415",
"[$	c #65A619",
"}$	c #66A61B",
"|$	c #62A70A",
"1$	c #6A9B17",
"2$	c #DCEDC6",
"3$	c #F7F6F7",
"4$	c #FFFFEF",
"5$	c #252C26",
"6$	c #223F07",
"7$	c #4A800C",
"8$	c #66A911",
"9$	c #71B918",
"0$	c #6EB70E",
"a$	c #72BB19",
"b$	c #70BA15",
"c$	c #70BB15",
"d$	c #71BC18",
"e$	c #6CBA12",
"f$	c #6CBB21",
"g$	c #6CBC12",
"h$	c #74BB14",
"i$	c #C9E0A9",
"j$	c #72B918",
"k$	c #72BC1A",
"l$	c #71BB1C",
"m$	c #6FB919",
"n$	c #6FB911",
"o$	c #71BC0E",
"p$	c #70BC1C",
"q$	c #6CB818",
"r$	c #6CB819",
"s$	c #84B33F",
"t$	c #F7FEF4",
"u$	c #F9FAF2",
"v$	c #3E423E",
"w$	c #162E01",
"x$	c #447611",
"y$	c #64A912",
"z$	c #71BB0E",
"A$	c #71BA12",
"B$	c #73BB19",
"C$	c #71B919",
"D$	c #70BB18",
"E$	c #70BA18",
"F$	c #70BA1A",
"G$	c #6DBC13",
"H$	c #6BBA1C",
"I$	c #74BE17",
"J$	c #6FAF16",
"K$	c #CCE0AE",
"L$	c #72BA18",
"M$	c #6EB417",
"N$	c #6EB918",
"O$	c #6FBC18",
"P$	c #6CB916",
"Q$	c #69B516",
"R$	c #70B618",
"S$	c #72B917",
"T$	c #71B916",
"U$	c #73BC15",
"V$	c #6BAF10",
"W$	c #B6D58B",
"X$	c #FCFEFA",
"Y$	c #FDFFFF",
"Z$	c #767F6F",
"`$	c #1A2A05",
" %	c #3E6810",
".%	c #5F9E13",
"+%	c #69AF10",
"@%	c #73BA16",
"#%	c #72BA1B",
"$%	c #72BA1A",
"%%	c #71BA13",
"&%	c #6FBB18",
"*%	c #72B91C",
"=%	c #6CB80C",
"-%	c #6AB60C",
";%	c #73B80E",
">%	c #7BAE29",
",%	c #E4F4CB",
"'%	c #70B717",
")%	c #6FB816",
"!%	c #70B916",
"~%	c #70B917",
"{%	c #74B714",
"]%	c #6DB816",
"^%	c #6DBA17",
"/%	c #6DB813",
"(%	c #6EB70F",
"_%	c #6BA81D",
":%	c #EBF9E6",
"<%	c #FDFCEA",
"[%	c #939A8E",
"}%	c #092200",
"|%	c #37690B",
"1%	c #619D1B",
"2%	c #6CB314",
"3%	c #6FBA13",
"4%	c #6DB915",
"5%	c #70B817",
"6%	c #70B816",
"7%	c #6BBB19",
"8%	c #69B408",
"9%	c #97BF55",
"0%	c #9BB457",
"a%	c #C7D8B8",
"b%	c #FBFFF9",
"c%	c #70B818",
"d%	c #6FB715",
"e%	c #72B714",
"f%	c #6EBA17",
"g%	c #6CB918",
"h%	c #9EC76B",
"i%	c #FEFFFE",
"j%	c #C5C6B5",
"k%	c #0E2000",
"l%	c #3B6015",
"m%	c #579218",
"n%	c #71B221",
"o%	c #6FB814",
"p%	c #6EBA16",
"q%	c #6DB917",
"r%	c #71B816",
"s%	c #68BA0D",
"t%	c #7ABC20",
"u%	c #EFFDE3",
"v%	c #FFFFF1",
"w%	c #FBFDF9",
"x%	c #6EB616",
"y%	c #6FB717",
"z%	c #6FB718",
"A%	c #70B919",
"B%	c #71B516",
"C%	c #71BD19",
"D%	c #74B81D",
"E%	c #6FAD1C",
"F%	c #D7E7C4",
"G%	c #E2E5D6",
"H%	c #1D280A",
"I%	c #365906",
"J%	c #51871B",
"K%	c #6AAE18",
"L%	c #72B818",
"M%	c #6FB914",
"N%	c #6EB81D",
"O%	c #71BF0F",
"P%	c #79B424",
"Q%	c #F0F7F3",
"R%	c #FEF6FE",
"S%	c #FEFEFE",
"T%	c #FDFEF8",
"U%	c #6EB617",
"V%	c #70B718",
"W%	c #70B619",
"X%	c #6DB713",
"Y%	c #79B02C",
"Z%	c #E4F2D6",
"`%	c #475A2E",
" &	c #39570E",
".&	c #518511",
"+&	c #6AAC1B",
"@&	c #6DB811",
"#&	c #6FBA19",
"$&	c #6FB91C",
"%&	c #6FB61B",
"&&	c #70B719",
"*&	c #74B01C",
"=&	c #F2FBE4",
"-&	c #FFFDEF",
";&	c #6FB818",
">&	c #6EB518",
",&	c #6FB618",
"'&	c #6FB719",
")&	c #6EB71A",
"!&	c #6EBA13",
"~&	c #72BB18",
"{&	c #70AB1D",
"]&	c #A9DA61",
"^&	c #729453",
"/&	c #32570C",
"(&	c #4E8103",
"_&	c #6AA627",
":&	c #6DB60B",
"<&	c #6BB913",
"[&	c #6DB919",
"}&	c #6EB81C",
"|&	c #6FB61A",
"1&	c #6FB619",
"2&	c #6EB517",
"3&	c #6EB716",
"4&	c #6BBA14",
"5&	c #73B21F",
"6&	c #ECFBE3",
"7&	c #FFFFF4",
"8&	c #F9FBFD",
"9&	c #79B41A",
"0&	c #70B41B",
"a&	c #71B21E",
"b&	c #71B311",
"c&	c #73B614",
"d&	c #73B613",
"e&	c #72B317",
"f&	c #72B417",
"g&	c #73B518",
"h&	c #72B21F",
"i&	c #76B720",
"j&	c #75B61D",
"k&	c #79B827",
"l&	c #88C43D",
"m&	c #517C18",
"n&	c #53860F",
"o&	c #68A413",
"p&	c #72B61C",
"q&	c #73BA17",
"r&	c #73B517",
"s&	c #73B419",
"t&	c #73B41E",
"u&	c #73B323",
"v&	c #73B326",
"w&	c #71B71C",
"x&	c #77B226",
"y&	c #F0FBF1",
"z&	c #FEFEF8",
"A&	c #FAFBFD",
"B&	c #FDFEFD",
"C&	c #6FB227",
"D&	c #6DBA18",
"E&	c #66B717",
"F&	c #6AB820",
"G&	c #6BB614",
"H&	c #6AB81B",
"I&	c #6AB71B",
"J&	c #6BB81E",
"K&	c #6BB81F",
"L&	c #6CB91F",
"M&	c #6CB920",
"N&	c #6DBA1A",
"O&	c #6BB814",
"P&	c #6AB618",
"Q&	c #62AD15",
"R&	c #5CA017",
"S&	c #61A913",
"T&	c #6DB817",
"U&	c #6CB915",
"V&	c #6CBB15",
"W&	c #6BBA17",
"X&	c #6AB816",
"Y&	c #6AB912",
"Z&	c #6AB814",
"`&	c #72AE16",
" *	c #EBFAE3",
".*	c #FCFCFD",
"+*	c #6FAD29",
"@*	c #6AB50C",
"#*	c #6EBE0D",
"$*	c #73BB12",
"%*	c #6EB819",
"&*	c #6FB819",
"**	c #6BB612",
"=*	c #6CB714",
"-*	c #6DB714",
";*	c #6DB815",
">*	c #71B71F",
",*	c #71B81A",
"'*	c #6FB51D",
")*	c #71B622",
"!*	c #6CB71C",
"~*	c #6CB618",
"{*	c #6EB519",
"]*	c #70B21C",
"^*	c #75B625",
"/*	c #6DB71C",
"(*	c #6EB81A",
"_*	c #6FB916",
":*	c #6FB81B",
"<*	c #6FB918",
"[*	c #6FB915",
"}*	c #6CB514",
"|*	c #76B02A",
"1*	c #EEFAF1",
"2*	c #FEFEF7",
"3*	c #FAFBFB",
"4*	c #FCFDFB",
"5*	c #CFEFAF",
"6*	c #92C05E",
"7*	c #8BBF58",
"8*	c #8CBD60",
"9*	c #91BF5B",
"0*	c #8FC15A",
"a*	c #8EC057",
"b*	c #8FC158",
"c*	c #8FBF56",
"d*	c #8FC052",
"e*	c #91C254",
"f*	c #90C057",
"g*	c #8BBA58",
"h*	c #8CBD5D",
"i*	c #8EC058",
"j*	c #92C457",
"k*	c #90C157",
"l*	c #91C059",
"m*	c #90C358",
"n*	c #90C258",
"o*	c #8FC05B",
"p*	c #8FC05D",
"q*	c #8FC05C",
"r*	c #8AC650",
"s*	c #96CB61",
"t*	c #F2FCF8",
"u*	c #FDFCFC",
"v*	c #FDFDFC",
". + @ # $ % % % % % & & & & & & & & & & * * * * * = = = = = & & & & & & & & & * * & - ; > , ' ) ! ~ ",
"{ ] ^ / ( _ _ _ _ _ : : : : : : : : : : < < < < < [ [ [ [ [ : : : : : : : : : : : } } | 1 2 3 4 5 6 ",
"7 8 9 0 a b b b b b c d d d d e e e e f g h i j k l m n o p q r d s t u u u u u b u v v w x y z A B ",
"C C C C C D E E E E F F F F G v v v v H I F J K L M N O P Q R S T U V C C C C W E E E E X Y Z `  ...",
"W W W W W E E E E E F F F F G +.+.+.+.+.@.#.$.%.&.*.=.-.;.>.,.'.).!.~.W W W W W E E E E {.Y Z `  ...",
"D D D D ].E E E E E F F F F +.G G G G G ^./.(._.:.<._._.[.}.|.1.2.!.3.D D D D E E E E E {.Y Z `  ...",
"4.4.4.4.5.6.E E E E F F F F +.7.7.7.7.8.9.0.a.b.c.d.e.f.g.h.i.j.k.l.m.4.4.4.4.R E E E E X Y Z `  ...",
"n.n.n.n.n.o.o.o.o.o.p.q.o.r.s.t.u.v.w.x.y.z.A.B.C.D._.E.F.G.H.I.J.K.L.n.n.n.n.M.N.o.O.P.Q.R.S.T.U.V.",
"o.o.o.o.o.o.o.o.o.n.W.X.R Y.Z.`. +.+++@+#+$+%+&+*+=+-+;+>+,+'+)+!+~+{+o.o.o.o.M.M.]+P.^+/+(+_+:+<+[+",
"5.5.5.5.5.5.5.5.5.5.}+|+T 1+2+3+4+5+6+7+8+9+0+a+b+_.c+d+e+f+g+h+i+j+k+5.5.5.5.4.].l+l+l+m+V n+o+p+q+",
"l+l+l+l+l+l+l+l+l+l+r+s+t+u+v+w+x+^.y+z+A+a+B+C+D+E+F+G+H+I+q J+K+L+M+l+l+l+l+s+l+s+5.N+O+P+Q+R+S+T+",
"l+l+l+l+l+l+l+l+l+U+V+W+X+Y+Z+`+ @.@+@@@#@$@C+%@&@*@=@-@;@>@,@'@)@l.D !@!@!@!@~@{@l+N+W ]@^@/@(@_@:@",
"{@{@{@{@{@{@{@{@{@~@<@[@}@|@1@2@3@4@5@6@B+B+7@$@8@9@0@a@b@c@d@e@f@g@h@{@{@{@{@<@i@{@j@s+k@{@l@m@n@o@",
"<@<@<@<@<@<@<@<@<@p@q@r@s@g t@u@v@w@x@y@z@$@$@$@$@_.A@B@C@D@E@F@G@H@I@J@J@J@J@<@<@<@<@<@K@L@M@X.N@O@",
"<@<@<@<@<@<@<@<@<@p@P@Q@R@S@T@U@V@W@X@Y@a+$@$@$@B++@Z@`@ #.#+#@###$#%#J@J@J@J@<@<@<@<@<@K@L@M@X.N@O@",
"<@<@<@<@<@<@<@<@<@&#*#=#K@-#;#>#,#'#)#!#z@$@$@$@~#{#]#^#/#(#_#:#<#[#}#J@J@J@J@<@<@<@<@<@K@L@M@X.N@O@",
"l@l@l@l@l@l@l@l@l@&#|#1#2#3#4#_.5#+@6#7#$@$@$@z@8#9#0#a#b#c#d#,+e#f#g#J@J@J@J@<@l@l@l@l@K@L@M@X.N@h#",
"i#i#i#i#i#i#i#i#i#j#k#l#m#n#o#p#q#r#s#t#u#v#w#&+U.x#_.y#z#A#B#C#D#E#F#J@J@J@J@G#i#i#i#i#H#I#J#K#L#M#",
"N#N#N#N#N#N#N#N#N#N#O#P#Q#R#S#T#U#V#W#X#Y#Z#`#A  $.$+$@$#$$$%$&$*$=$-$G#G#G#G#G#N#N#N#N#;$>$,$l#'$)$",
"!$!$!$!$!$!$!$!$!$~${$]$^$/$($_$:$<$[$}$|$1$2$3$4$_.5$6$7$8$9$R@0$a$-$b$b$b$b$c$!$!$!$!$d$e$f$g$h$i$",
"j$j$j$j$j$j$j$j$j$9$k$l$m$n$o$,$p$]@q$r$]+s$t$)#u$v$w$x$y$z$w+A$i#B$C$D$D$D$D$E$j$j$j$j$F$G$H$I$J$K$",
"L$L$L$L$L$L$L$L$L$L$M$N$O$P$Q$R$=$S$T$U$V$W$X$Y$Z$`$ %.%+%@%#%#%$%%%j#&%&%&%&%E$L$L$L$L$*%=%-%;%>%,%",
"C$C$C$C$C$C$C$C$C$C$'%)%!%~%C${%]%^%/%(%_%:%<%[%}%|%1%2%3%4%5%5%5%6%T$~%~%~%~%F#C$C$C$C$7%8%9%0%a%b%",
"c%c%c%c%c%c%c%c%c%c%d%d%6%6%!%e%f%g%f%/$h%i%j%k%l%m%n%o%p%q%r%T$T$T$6%6%6%6%6%5%c%c%c%c%s%t%u%v%0+w%",
"x%x%x%x%x%c%c%c%c%c%y%z%y%C$A%B%C%O#D%E%F%G%H%I%J%K%L%M%F$N%9$C$C$C$c%c%c%c%c%c%c%c%c%c%O%P%Q%R%S%T%",
"x%x%x%x%x%c%c%c%c%c%U%U%z%z%V%W%.+X%,@Y%Z%`% &.&+&@&b$#&$&%&V%&&&&&&V%V%V%V%V%V%c%c%c%c%p@*&=&-&D+8#",
";&;&c%5%c%x%x%x%x%x%>&U%,&'&z%)&!&~&{&]&^&/&(&_&:&<&[&}&|&1&'&'&'&'&,&2&2&2&2&U%x%x%3&3&4&5&6&7&8&V.",
"9&x.0&a&b&c&d&d&d&d&e&f&g&g&g&h&i&j&k&l&m&n&o&p&q&r&g&g&g&g&g&g&g&g&g&r&r&r&r&g&s&t&u&v&w&x&y&z&A&B&",
"C&D&E&F&G&H&I&I&I&I&J&K&J&L&M&N&O&^%P&Q&R&S&T&^%U&V&V&V&V&V&V&V&V&V&W&I&I&I&I&X&Y&Y&Z&X&l#`& *]#.*7@",
"+*@*#*{$$*%*&*&*&*&***=*=*-*;*>*,*R$'*)*!*~*{*]*^*/*/*/*/*/*/*/*/*/*(*_*_*_*_*;&:*<*[*M%}*|*1*2*3*4*",
"5*6*7*8*9*0*0*0*0*0*a*a*b*b*b*c*d*e*f*g*h*i*j*k*l*m*m*m*m*m*m*m*m*m*n*b*b*b*b*o*p*q*o*0*r*s*t*u*v*~ "};
