/* XPM */
static const char * battery_full_xpm[] = {
"50 31 308 2",
"  	c None",
". 	c #D1F1BF",
"+ 	c #A3D569",
"@ 	c #77B813",
"# 	c #77C207",
"$ 	c #73C10B",
"% 	c #70BF0D",
"& 	c #71C00D",
"* 	c #71C00C",
"= 	c #71C00F",
"- 	c #93D45D",
"; 	c #C3EBA0",
"> 	c #FBFCFC",
", 	c #FDFAF7",
"' 	c #FBFFFE",
") 	c #FBFEFC",
"! 	c #79B91A",
"~ 	c #72B509",
"{ 	c #72BE06",
"] 	c #6DBE19",
"^ 	c #70BB0F",
"/ 	c #7FB626",
"( 	c #F4FBEA",
"_ 	c #FDFCF4",
": 	c #F7FCFD",
"< 	c #73BF0C",
"[ 	c #74C20E",
"} 	c #72C20F",
"| 	c #6EC20F",
"1 	c #6CC110",
"2 	c #71C00E",
"3 	c #74C607",
"4 	c #77B614",
"5 	c #F1FAEC",
"6 	c #FDFCF8",
"7 	c #FDFEFF",
"8 	c #FDFEFC",
"9 	c #6CB71B",
"0 	c #70BD19",
"a 	c #6FBD10",
"b 	c #6FC00B",
"c 	c #6EBF08",
"d 	c #70BD10",
"e 	c #6FBF0D",
"f 	c #6FBE0D",
"g 	c #70C30F",
"h 	c #78B926",
"i 	c #F1FBF2",
"j 	c #FDF9FA",
"k 	c #FEFFFE",
"l 	c #FBFDFA",
"m 	c #71BF08",
"n 	c #6DBC01",
"o 	c #74C206",
"p 	c #6EB80A",
"q 	c #74BB1E",
"r 	c #6FBE0F",
"s 	c #69BF06",
"t 	c #76BA1C",
"u 	c #EFFBE6",
"v 	c #FFFDF3",
"w 	c #FDFDFD",
"x 	c #FDFDFC",
"y 	c #72BD13",
"z 	c #72BE14",
"A 	c #71BD14",
"B 	c #72BE13",
"C 	c #71BE12",
"D 	c #71BF13",
"E 	c #71BF11",
"F 	c #72BF0F",
"G 	c #70BE10",
"H 	c #79BC11",
"I 	c #ECFAEE",
"J 	c #F8FDF3",
"K 	c #FAFCFE",
"L 	c #FCFFF8",
"M 	c #71BD12",
"N 	c #71BC12",
"O 	c #70BD12",
"P 	c #70BE12",
"Q 	c #71BE0D",
"R 	c #74C71B",
"S 	c #74B711",
"T 	c #F3FAEC",
"U 	c #FFF9F3",
"V 	c #FEFBFE",
"W 	c #FEFFF8",
"X 	c #6EBC0E",
"Y 	c #70BE11",
"Z 	c #71BE0F",
"` 	c #6ABE15",
" .	c #75BA1F",
"..	c #F1FDDB",
"+.	c #FFFAF9",
"@.	c #FFF9FF",
"#.	c #FCFCFD",
"$.	c #70BC11",
"%.	c #6EBD11",
"&.	c #6FBD11",
"*.	c #6EBC11",
"=.	c #70BD11",
"-.	c #72C218",
";.	c #6AB509",
">.	c #8FBF4E",
",.	c #B6D489",
"'.	c #D6ECBE",
").	c #FBFEFA",
"!.	c #70BB10",
"~.	c #6EBC10",
"{.	c #6FBC10",
"].	c #6FBB16",
"^.	c #70C007",
"/.	c #6BBC00",
"(.	c #73BB13",
"_.	c #73AB1C",
":.	c #EAF6DB",
"<.	c #6FBC11",
"[.	c #71BB11",
"}.	c #6FBD0D",
"|.	c #6EBC19",
"1.	c #6EBD0B",
"2.	c #73BB11",
"3.	c #C7E0A2",
"4.	c #70BB12",
"5.	c #6DBC19",
"6.	c #6EBD0C",
"7.	c #72B912",
"8.	c #C9E1A5",
"9.	c #6FBD12",
"0.	c #70BB13",
"a.	c #6FBD0E",
"b.	c #6DBC1A",
"c.	c #6EBD0E",
"d.	c #72B914",
"e.	c #6FBC12",
"f.	c #70BB15",
"g.	c #6DBB1B",
"h.	c #C9E1A6",
"i.	c #6EBC14",
"j.	c #6EBB14",
"k.	c #71BB15",
"l.	c #6EBB1C",
"m.	c #6EBD10",
"n.	c #72B916",
"o.	c #72BA11",
"p.	c #70BC0F",
"q.	c #6FBB17",
"r.	c #6BBC16",
"s.	c #72B91A",
"t.	c #C9E2A1",
"u.	c #72BB14",
"v.	c #71BB14",
"w.	c #70BC14",
"x.	c #71BC11",
"y.	c #6FBA17",
"z.	c #6EBC17",
"A.	c #72B81B",
"B.	c #C9E2A2",
"C.	c #72BB15",
"D.	c #71BA12",
"E.	c #71BA18",
"F.	c #6EBB18",
"G.	c #74B71C",
"H.	c #CAE2A2",
"I.	c #72BA16",
"J.	c #71BA16",
"K.	c #70BB16",
"L.	c #72BA13",
"M.	c #71B91B",
"N.	c #6FBA1B",
"O.	c #70BB11",
"P.	c #75B71D",
"Q.	c #CAE1A3",
"R.	c #72BA18",
"S.	c #70BB18",
"T.	c #6FBB18",
"U.	c #73B914",
"V.	c #72B91B",
"W.	c #6FBB1A",
"X.	c #71BB12",
"Y.	c #76B61F",
"Z.	c #CAE1A2",
"`.	c #70B816",
" +	c #6FB916",
".+	c #6EB916",
"++	c #70B916",
"@+	c #71B816",
"#+	c #72B716",
"$+	c #6EB615",
"%+	c #6CC000",
"&+	c #74B413",
"*+	c #6DC00D",
"=+	c #6BB813",
"-+	c #DBE7C7",
";+	c #71B917",
">+	c #70B917",
",+	c #6EBA17",
"'+	c #71B817",
")+	c #71BB20",
"!+	c #6ABA0A",
"~+	c #77AA1E",
"{+	c #75AB25",
"]+	c #99C45F",
"^+	c #FCFEF0",
"/+	c #72B817",
"(+	c #6BB61B",
"_+	c #6FB62D",
":+	c #E1F4D1",
"<+	c #E7F4E6",
"[+	c #F6FBED",
"}+	c #FFFBFC",
"|+	c #6FB715",
"1+	c #6EB815",
"2+	c #6DB815",
"3+	c #6FB815",
"4+	c #70B615",
"5+	c #6DBC0A",
"6+	c #72B61F",
"7+	c #F4F8EE",
"8+	c #F9FBFA",
"9+	c #F9FDEF",
"0+	c #FDFBFA",
"a+	c #6FB816",
"b+	c #70B716",
"c+	c #6FB716",
"d+	c #70B715",
"e+	c #71B21D",
"f+	c #F6FBE4",
"g+	c #F9FBF9",
"h+	c #F9FEFA",
"i+	c #FEF9FB",
"j+	c #6CB814",
"k+	c #6CB719",
"l+	c #6FB61B",
"m+	c #6FB516",
"n+	c #73BA13",
"o+	c #6DB818",
"p+	c #6DB918",
"q+	c #6DB817",
"r+	c #6CBB16",
"s+	c #74B01F",
"t+	c #EEFBE5",
"u+	c #FEFDF0",
"v+	c #FDFCFF",
"w+	c #FCFEFE",
"x+	c #6EBB08",
"y+	c #70B912",
"z+	c #74BA22",
"A+	c #6DB320",
"B+	c #6FB520",
"C+	c #6CB716",
"D+	c #6EBD16",
"E+	c #76B221",
"F+	c #EEFBE7",
"G+	c #FEFDF2",
"H+	c #FDFDFF",
"I+	c #72AF3D",
"J+	c #71B523",
"K+	c #6BB706",
"L+	c #6CBA05",
"M+	c #6BB90E",
"N+	c #6CB717",
"O+	c #6DBC12",
"P+	c #EEFBEB",
"Q+	c #FEFCF6",
"R+	c #FCFEFC",
"S+	c #6FB308",
"T+	c #72B714",
"U+	c #71B820",
"V+	c #6BB622",
"W+	c #6CB926",
"X+	c #6EB917",
"Y+	c #6EB918",
"Z+	c #6BBA0D",
"`+	c #73B01D",
" @	c #EFFBEF",
".@	c #FFFDF9",
"+@	c #FDFEFD",
"@@	c #FCFEFB",
"#@	c #A0D672",
"$@	c #6CAA1E",
"%@	c #6EB706",
"&@	c #66B504",
"*@	c #67B613",
"=@	c #68B113",
"-@	c #68B214",
";@	c #69B314",
">@	c #6AB415",
",@	c #69B70D",
"'@	c #74AF1F",
")@	c #EFFBF0",
"!@	c #FFFDFC",
"~@	c #FDFDFB",
"{@	c #FCFDFA",
"]@	c #F8FDF7",
"^@	c #E5F0DA",
"/@	c #E7F1CE",
"(@	c #E5F2CE",
"_@	c #E7F2DD",
":@	c #E5F3DB",
"<@	c #E3F4DB",
"[@	c #E4F4DB",
"}@	c #E3F0D0",
"|@	c #F0F6E0",
"1@	c #FAFEF9",
"2@	c #FAFDFF",
"3@	c #FAFDF9",
". + @ # $ % & & & * = = = = = = = = = = = = = = = = = = = = = = = = = = = = = = = = = = - ; > , ' ) ",
"! ~ { % ] * * * * * = = = = = = = = = = = = = = = = = = = = = = = = = = = = = = = = = = ^ / ( _ : ) ",
"< [ } | 1 2 = = = = = = = = = = = = = = = = = = = = = = = = = = = = = = = = = = = = = = 3 4 5 6 7 8 ",
"9 0 a b c d a a a a e f f f f f f f f f f f f f f f f f f f f f f f f f f f f f f f f f g h i j k l ",
"m n o p q r d d d d e e e e e e e e e e e e e e e e e e e e e e e e e e e e e e e e e e s t u v w x ",
"y z A B C e % % % e D D D D D D D D D D D D D D D D D D D D D D D D D D D D D E F F F F G H I J K L ",
"M M M M N e % % % % O P P P P P P P P P P P P P P P P P P P P P P P P P P P P G Q Q Q Q R S T U V W ",
"M M M M M X X X X X P P P P P P P P P P P P P P P P P P P P P P P P P P P P P Y Z Z Z Z `  ...+.@.#.",
"$.$.$.$.$.%.&.&.&.*.&.&.&.&.&.&.&.&.&.&.&.&.&.&.&.&.&.&.&.&.&.&.&.&.&.&.&.&.&.=.$.$.$.$.-.;.>.,.'.).",
"!.!.!.!.!.%.&.&.&.&.~.~.~.~.~.~.~.~.~.~.~.~.~.~.~.~.~.~.~.~.~.~.~.~.~.~.~.~.~.{.!.!.!.!.].^./.(._.:.",
"%.%.%.%.%.<.&.&.&.&.&.&.&.&.&.&.&.&.&.&.&.&.&.&.&.&.&.&.&.&.&.&.&.&.&.&.&.&.&.%.%.%.%.%.[.}.|.1.2.3.",
"&.&.&.&.&.&.&.&.&.&.&.&.&.&.&.&.&.&.&.&.&.&.&.&.&.&.&.&.&.&.&.&.&.&.&.&.&.&.&.&.&.&.&.&.4.}.5.6.7.8.",
"9.9.9.9.9.9.9.9.9.9.9.9.9.9.9.9.9.9.9.9.9.9.9.9.9.9.9.9.9.9.9.9.9.9.9.9.9.9.9.9.9.9.9.9.0.a.b.c.d.8.",
"e.e.e.e.e.e.e.e.e.e.e.e.e.e.e.e.e.e.e.e.e.e.e.e.e.e.e.e.e.e.e.e.e.e.e.e.e.e.e.e.e.e.e.e.f.<.g.c.d.h.",
"i.i.i.i.i.i.i.i.i.i.i.i.i.i.i.i.i.i.i.i.i.i.i.i.i.i.i.i.i.i.i.i.i.i.i.i.i.i.i.i.j.j.j.j.k.{.l.m.n.h.",
"o.o.o.o.o.o.o.o.o.o.o.o.o.o.o.o.o.o.o.o.o.o.o.o.o.o.o.o.o.o.o.o.o.o.o.o.o.o.o.[.$.$.$.$.p.q.r.c.s.t.",
"u.u.u.u.u.u.u.u.u.u.u.u.u.u.u.u.u.u.u.u.u.u.u.u.u.u.u.u.u.u.u.u.u.u.u.u.u.u.u.v.w.w.w.w.x.y.z.m.A.B.",
"C.C.C.C.C.C.C.C.C.C.C.C.C.C.C.C.C.C.C.C.C.C.C.C.C.C.C.C.C.C.C.C.C.C.C.C.C.C.C.k.f.f.f.f.D.E.F.{.G.H.",
"I.I.I.I.I.I.I.I.I.I.I.I.I.I.I.I.I.I.I.I.I.I.I.I.I.I.I.I.I.I.I.I.I.I.I.I.I.I.I.J.K.K.K.K.L.M.N.O.P.Q.",
"R.R.R.R.R.R.R.R.R.R.R.R.R.R.R.R.R.R.R.R.R.R.R.R.R.R.R.R.R.R.R.R.R.R.R.R.R.R.R.E.S.T.T.T.U.V.W.X.Y.Z.",
"`.`.`.`.`.`.`.`.`.`.`.`.`.`.`.`.`.`.`.`.`.`.`.`.`.`.`.`.`.`.`.`.`.`.`.`.`.`.`. +.+++@+#+$+%+&+*+=+-+",
";+;+;+;+;+;+;+;+;+;+;+;+;+;+;+;+;+;+;+;+;+;+;+;+;+;+;+;+;+;+;+;+;+;+;+;+;+;+;+>+,+>+>+'+)+!+~+{+]+^+",
";+;+;+;+;+;+;+;+;+;+;+;+;+;+;+;+;+;+;+;+;+;+;+;+;+;+;+;+;+;+;+;+;+;+;+;+;+;+;+>+y.>+;+/+(+_+:+<+[+}+",
"|+|+|+|+|+|+|+|+|+|+|+|+|+|+|+|+|+|+|+|+|+|+|+|+|+|+|+|+|+|+|+|+|+|+|+|+|+|+|+1+2+3+|+4+5+6+7+8+9+0+",
"a+3+3+b+c+a+a+a+a+a+a+a+a+a+a+a+a+a+a+a+a+a+a+a+a+a+a+a+a+a+a+a+a+a+a+a+a+a+a+a+2+3+3+d+N e+f+g+h+i+",
"j+k+l+m+n+o+p+p+p+p+p+p+p+p+p+p+p+p+p+p+p+p+p+p+p+p+p+p+p+p+p+p+p+p+p+p+p+p+p+q+q+q+q+q+r+s+t+u+v+w+",
"x+y+z+A+B+C+C+C+C+C+C+C+C+C+C+C+C+C+C+C+C+C+C+C+C+C+C+C+C+C+C+C+C+C+C+C+C+C+C+q+q+q+q+q+D+E+F+G+H+w+",
"I+J+K+L+M+N+C+C+C+C+C+C+C+C+C+C+C+C+C+C+C+C+C+C+C+C+C+C+C+C+C+C+C+C+C+C+C+C+C+C+C+C+C+C+O+E+P+Q+7 R+",
"S+T+U+V+W+X+Y+Y+Y+Y+Y+Y+Y+Y+Y+Y+Y+Y+Y+Y+Y+Y+Y+Y+Y+Y+Y+Y+Y+Y+Y+Y+Y+Y+Y+Y+Y+Y+Y+q+q+q+q+q+Z+`+ @.@+@@@",
"#@$@%@&@*@=@-@-@-@-@-@-@-@-@-@-@-@-@-@-@-@-@-@-@-@-@-@-@-@-@-@-@-@-@-@-@-@-@-@;@>@>@>@>@,@'@)@!@~@{@",
"]@^@/@(@_@:@:@:@:@:@<@<@<@<@<@<@<@<@<@<@<@<@<@<@<@<@<@<@<@<@<@<@<@<@<@<@<@<@<@[@:@:@:@:@}@|@1@2@3@8 "};
