/* XPM */
static const char * battery_l1_xpm[] = {
"50 31 340 2",
"  	c None",
". 	c #F6F9F9",
"+ 	c #E7D1BA",
"@ 	c #E5B984",
"# 	c #E9BE7F",
"$ 	c #E2C384",
"% 	c #F2BB7A",
"& 	c #F2BD7C",
"* 	c #F2BF7D",
"= 	c #F3C07E",
"- 	c #F1C17F",
"; 	c #EBC585",
"> 	c #E2CFA1",
", 	c #D8DCD6",
"' 	c #DCDCD8",
") 	c #D5E0E2",
"! 	c #DCDCDC",
"~ 	c #DDDDDD",
"{ 	c #E1E1E1",
"] 	c #F6F6F6",
"^ 	c #FEFEFE",
"/ 	c #FBFBFB",
"( 	c #FCFCFC",
"_ 	c #E1AD65",
": 	c #DD8A2A",
"< 	c #F68F1E",
"[ 	c #EF9128",
"} 	c #E39B43",
"| 	c #E1982E",
"1 	c #E39A30",
"2 	c #E49D33",
"3 	c #E4A034",
"4 	c #E6A236",
"5 	c #EDA735",
"6 	c #EBCA85",
"7 	c #EBECEE",
"8 	c #EAEAE2",
"9 	c #E2EBF1",
"0 	c #EBEAEA",
"a 	c #EBEBEB",
"b 	c #EAEAEA",
"c 	c #ECECEC",
"d 	c #DFDFDF",
"e 	c #C7C7C7",
"f 	c #FAFAFA",
"g 	c #FFFFFF",
"h 	c #FDFDFD",
"i 	c #DC8C3B",
"j 	c #EA963A",
"k 	c #E3912B",
"l 	c #E39B31",
"m 	c #DB9D36",
"n 	c #E59941",
"o 	c #E49B42",
"p 	c #E69C44",
"q 	c #E69F46",
"r 	c #E7A046",
"s 	c #EAA133",
"t 	c #EBD38B",
"u 	c #F9FFFF",
"v 	c #FFFDED",
"w 	c #FEFCFF",
"x 	c #C9C9C9",
"y 	c #F0F0F0",
"z 	c #E99524",
"A 	c #E0922B",
"B 	c #E0973D",
"C 	c #E29842",
"D 	c #E39441",
"E 	c #E69D36",
"F 	c #E69E38",
"G 	c #E69F39",
"H 	c #E6A13A",
"I 	c #E6A23B",
"J 	c #E5A141",
"K 	c #E4D290",
"L 	c #F5FEFF",
"M 	c #FEFEEE",
"N 	c #FEFBFF",
"O 	c #CACACA",
"P 	c #F5F5F5",
"Q 	c #E49135",
"R 	c #E49237",
"S 	c #E59438",
"T 	c #E6973A",
"U 	c #E7973A",
"V 	c #E59C3A",
"W 	c #E59E3C",
"X 	c #E5A03C",
"Y 	c #E3A43C",
"Z 	c #E4A43C",
"` 	c #E7A23D",
" .	c #E9D392",
"..	c #F8FEFF",
"+.	c #FEFCFE",
"@.	c #FCFEF8",
"#.	c #FEFDFE",
"$.	c #CBCBCB",
"%.	c #F3F3F3",
"&.	c #E39135",
"*.	c #E49236",
"=.	c #E49538",
"-.	c #E4973A",
";.	c #E4983A",
">.	c #E69D3B",
",.	c #E69E3C",
"'.	c #E5A13C",
").	c #E5A63D",
"!.	c #E9D292",
"~.	c #CDCDCD",
"{.	c #E39236",
"].	c #E39437",
"^.	c #E39638",
"/.	c #E49A3B",
"(.	c #E69F3D",
"_.	c #E6A13D",
":.	c #E4A53D",
"<.	c #E5A53D",
"[.	c #C6C6C6",
"}.	c #F2F2F2",
"|.	c #E29336",
"1.	c #E29537",
"2.	c #E39839",
"3.	c #E49A3C",
"4.	c #E79E3C",
"5.	c #E4A43D",
"6.	c #E6A63E",
"7.	c #CFCFCF",
"8.	c #E39436",
"9.	c #E39637",
"0.	c #E49839",
"a.	c #E59A3B",
"b.	c #E59B3B",
"c.	c #E5A23D",
"d.	c #E6A73E",
"e.	c #E6A53D",
"f.	c #EAD393",
"g.	c #F7FEFF",
"h.	c #FAFEF8",
"i.	c #D0D0D0",
"j.	c #D8D8D8",
"k.	c #EEEEEE",
"l.	c #E49536",
"m.	c #E59737",
"n.	c #E59939",
"o.	c #E69C3B",
"p.	c #E79F3D",
"q.	c #E6A03E",
"r.	c #E6A43E",
"s.	c #E6A73F",
"t.	c #E7AA40",
"u.	c #E5A83D",
"v.	c #EAD394",
"w.	c #FFFCFE",
"x.	c #F8FEF8",
"y.	c #F1F1F1",
"z.	c #E6E6E6",
"A.	c #C1C1C1",
"B.	c #F9F9F9",
"C.	c #E39636",
"D.	c #E39737",
"E.	c #E49A39",
"F.	c #E59D3B",
"G.	c #E6A23F",
"H.	c #E5A63F",
"I.	c #E7A840",
"J.	c #E5AA3F",
"K.	c #E5A83C",
"L.	c #EBD494",
"M.	c #F6FEFF",
"N.	c #D1D1D1",
"O.	c #E39938",
"P.	c #E49B39",
"Q.	c #E5A13E",
"R.	c #E6A340",
"S.	c #E5A740",
"T.	c #E5A941",
"U.	c #E6AB41",
"V.	c #EBD495",
"W.	c #F8FEF9",
"X.	c #D3D3D3",
"Y.	c #EFEFEF",
"Z.	c #E29937",
"`.	c #E49C3A",
" +	c #E49E3C",
".+	c #E5A541",
"++	c #E6A741",
"@+	c #E5AA41",
"#+	c #E6AC42",
"$+	c #E6A93E",
"%+	c #FFFDFF",
"&+	c #D2D2D2",
"*+	c #EDEDED",
"=+	c #E29A38",
"-+	c #E39B39",
";+	c #E49D3B",
">+	c #E49F3D",
",+	c #E4A03D",
"'+	c #E6A23D",
")+	c #E6A53F",
"!+	c #E6A740",
"~+	c #E6AA42",
"{+	c #E6AB42",
"]+	c #E6AA3F",
"^+	c #EAD494",
"/+	c #F9FEFF",
"(+	c #FFFCFF",
"_+	c #F9FEF9",
":+	c #E59F3D",
"<+	c #E5A53F",
"[+	c #E5AC43",
"}+	c #E6AB3F",
"|+	c #EAD594",
"1+	c #FAFEFF",
"2+	c #F9FEF8",
"3+	c #E7A640",
"4+	c #E7A841",
"5+	c #E5AB43",
"6+	c #E6AD44",
"7+	c #E6A63F",
"8+	c #E5AA42",
"9+	c #E5AD44",
"0+	c #E5AF45",
"a+	c #E6A13E",
"b+	c #E5A841",
"c+	c #E4AB42",
"d+	c #E4AE44",
"e+	c #E4AF45",
"f+	c #E69C3D",
"g+	c #E69D3E",
"h+	c #E5A43E",
"i+	c #E5A83E",
"j+	c #E6AA40",
"k+	c #E6AC41",
"l+	c #E6AE43",
"m+	c #E6AD42",
"n+	c #E79D3E",
"o+	c #E4A43E",
"p+	c #E4A53E",
"q+	c #E7AE43",
"r+	c #E59F3F",
"s+	c #E4A23E",
"t+	c #E4A640",
"u+	c #E6A93F",
"v+	c #E7AB41",
"w+	c #E7AD42",
"x+	c #E7AD43",
"y+	c #CCCCCC",
"z+	c #E59E3E",
"A+	c #E5A040",
"B+	c #E4A33F",
"C+	c #E4A63F",
"D+	c #E3A740",
"E+	c #E8AE43",
"F+	c #D9D9D9",
"G+	c #C2C2C2",
"H+	c #E49F3F",
"I+	c #E3A33F",
"J+	c #E3A63F",
"K+	c #E2A740",
"L+	c #E7A93F",
"M+	c #E8AB41",
"N+	c #E8AD42",
"O+	c #E8AF44",
"P+	c #C8C8C8",
"Q+	c #E4E4E4",
"R+	c #E5A13D",
"S+	c #E4A63E",
"T+	c #E4A93E",
"U+	c #E2AC40",
"V+	c #E3AE42",
"W+	c #E5AF43",
"X+	c #E5B043",
"Y+	c #E6AF44",
"Z+	c #FAFEFD",
"`+	c #FFFDFE",
" @	c #F9FEF7",
".@	c #F4F4F4",
"+@	c #E4A53F",
"@@	c #E5A73F",
"#@	c #E4AE42",
"$@	c #FAFEFE",
"%@	c #E5A640",
"&@	c #E6A840",
"*@	c #E6B044",
"=@	c #E5AE43",
"-@	c #E7A13F",
";@	c #E7A240",
">@	c #E7A741",
",@	c #E7A941",
"'@	c #E6AB40",
")@	c #E4AF43",
"!@	c #E8A140",
"~@	c #E7A340",
"{@	c #E7A942",
"]@	c #E6AA41",
"^@	c #E6B144",
"/@	c #E5AE42",
"(@	c #E7AA43",
"_@	c #F9FFFD",
":@	c #F9FFF6",
"<@	c #E1A436",
"[@	c #E9A23D",
"}@	c #ECA543",
"|@	c #E2AB40",
"1@	c #DCB640",
"2@	c #E7B046",
"3@	c #E6B046",
"4@	c #E6B045",
"5@	c #E4B132",
"6@	c #EAD397",
"7@	c #FDFCFF",
"8@	c #FFFFF9",
"9@	c #FDFFFF",
"0@	c #F3DBB8",
"a@	c #D2A454",
"b@	c #ECAA33",
"c@	c #E8A637",
"d@	c #E5A953",
"e@	c #ECAE3F",
"f@	c #EBAD41",
"g@	c #EDAD3D",
"h@	c #E2BF81",
"i@	c #D8D5E0",
"j@	c #DBD6D2",
"k@	c #CED5D8",
"l@	c #D6D6D6",
"m@	c #F6FEF9",
"n@	c #F7EDD6",
"o@	c #F4D8AF",
"p@	c #F4DCB8",
"q@	c #F2DEC7",
"r@	c #F4E4B8",
"s@	c #F4E4B9",
"t@	c #F4E3B9",
"u@	c #F5DEB1",
"v@	c #EEE4C5",
"w@	c #E2E9EE",
"x@	c #F0EDED",
"y@	c #E8EEEA",
". + @ # $ % & * = - ; > , ' ) ! ! ! ! ! ! ! ! ! ! ! ! ! ! ! ! ! ! ! ! ! ! ! ! ~ ~ ~ ~ ~ { ] ^ / ( ^ ",
"_ : < [ } | 1 2 3 4 5 6 7 8 9 0 a a a a a a a a a a a a a a a a a a a a a a b c c c c c d e / f g h ",
"i j k l m n o p q r s t u v w g g g g g g g g g g g g g g g g g g g g g g g g ^ ^ ^ ^ ^ ( x y ( g h ",
"z A B C D E F G H I J K L M N ^ ^ ^ ^ ^ ^ ^ ^ ^ ^ ^ ^ ^ ^ ^ ^ ^ ^ ^ ^ ^ ^ ^ ^ ^ ^ ^ ^ ^ g O P h g h ",
"Q R S T U V W X Y Z `  ...+.@.#.h h h h h h h h h h h h h h h h h h h h h h h h h h h ^ h $.%./ ( ^ ",
"&.*.=.-.;.>.,.'.Z ).` !...+.@.#.^ ^ ^ ^ ^ ^ ^ ^ ^ ^ ^ ^ ^ ^ ^ ^ ^ ^ ^ ^ ^ ^ ^ ^ ^ ^ ^ h g ~.%.h g h ",
"{.].^.;./.>.(._.:.<.` !...+.@.#.^ ^ ^ ^ ^ ^ ^ ^ ^ ^ ^ ^ ^ ^ ^ ^ ^ ^ ^ ^ ^ ^ ^ ^ ^ ^ ^ ^ h [.}.^ ( ^ ",
"|.1.2./.3.4.(._.5.6.` !...+.@.#.^ ^ ^ ^ ^ ^ ^ ^ ^ ^ ^ ^ ^ ^ ^ ^ ^ ^ ^ ^ ^ ^ ^ ^ ^ ^ ^ h g 7.P h ^ h ",
"8.9.0.a.b.,.(.c.6.d.e.f.g.+.h.#.^ ^ ^ ^ ^ ^ ^ ^ ^ ^ ^ ^ ^ ^ ^ ^ ^ ^ ^ ^ ^ ^ ^ ^ ^ ^ ^ ^ h $.i.j.k.^ ",
"l.m.n.o.o.p.q.r.s.t.u.v.g.w.x.#.^ ^ ^ ^ ^ ^ ^ ^ ^ ^ ^ ^ ^ ^ ^ ^ ^ ^ ^ ^ ^ ^ ^ ^ ^ ^ ^ h g y.b z.A.B.",
"C.D.E.o.F.(.G.H.I.J.K.L.M.w.x.#.^ ^ ^ ^ ^ ^ ^ ^ ^ ^ ^ ^ ^ ^ ^ ^ ^ ^ ^ ^ ^ ^ ^ ^ ^ ^ ^ h h g f g N.k.",
"D.O.P.F.,.Q.R.S.T.U.u.V...w.W.#.^ ^ ^ ^ ^ ^ ^ ^ ^ ^ ^ ^ ^ ^ ^ ^ ^ ^ ^ ^ ^ ^ ^ ^ ^ ^ ^ ^ h h ( h X.Y.",
"Z.O.`. + +G..+++@+#+$+L.g.%+W.#.^ ^ ^ ^ ^ ^ ^ ^ ^ ^ ^ ^ ^ ^ ^ ^ ^ ^ ^ ^ ^ ^ ^ ^ ^ ^ ^ h ^ ( ^ g &+*+",
"=+-+;+>+,+'+)+!+~+{+]+^+/+(+_+#.^ ^ ^ ^ ^ ^ ^ ^ ^ ^ ^ ^ ^ ^ ^ ^ ^ ^ ^ ^ ^ ^ ^ ^ ^ ^ ^ ^ h g ^ g i.k.",
"=+-+;+:+,+` <+S.~+[+}+|+1+(+2+#.^ ^ ^ ^ ^ ^ ^ ^ ^ ^ ^ ^ ^ ^ ^ ^ ^ ^ ^ ^ ^ ^ ^ ^ ^ ^ ^ ^ h ^ ^ g N.k.",
"-+-+;+:+Q.r.3+4+5+6+]+|+1+(+2+#.^ ^ ^ ^ ^ ^ ^ ^ ^ ^ ^ ^ ^ ^ ^ ^ ^ ^ ^ ^ ^ ^ ^ ^ ^ ^ ^ ^ h ^ ^ g N.k.",
"-+`.W q.Q.7+!+8+9+0+]+|+1+(+2+#.^ ^ ^ ^ ^ ^ ^ ^ ^ ^ ^ ^ ^ ^ ^ ^ ^ ^ ^ ^ ^ ^ ^ ^ ^ ^ ^ ^ h ^ ^ g N.k.",
"-+`.W q.a+!+b+c+d+e+]+|+1+(+2+#.^ ^ ^ ^ ^ ^ ^ ^ ^ ^ ^ ^ ^ ^ ^ ^ ^ ^ ^ ^ ^ ^ ^ ^ ^ ^ ^ ^ h g g g N.k.",
"f+g+Q.h+<+i+j+k+l+m+]+|+1+(+2+#.^ ^ ^ ^ ^ ^ ^ ^ ^ ^ ^ ^ ^ ^ ^ ^ ^ ^ ^ ^ ^ ^ ^ ^ ^ ^ ^ h g / B.g X.y ",
"f+n+a+o+p+i+j+k+q+q+]+|+1+(+2+#.^ ^ ^ ^ ^ ^ ^ ^ ^ ^ ^ ^ ^ ^ ^ ^ ^ ^ ^ ^ ^ ^ ^ ^ ^ ^ ^ ^ h g f g i.c ",
"g+r+s+p+t+u+v+w+m+x+]+|+1+(+2+#.^ ^ ^ ^ ^ ^ ^ ^ ^ ^ ^ ^ ^ ^ ^ ^ ^ ^ ^ ^ ^ ^ ^ ^ ^ ^ ^ ^ ( f g h y+Y.",
"z+A+B+C+D+u+v+w+q+E+]+|+1+(+2+#.^ ^ ^ ^ ^ ^ ^ ^ ^ ^ ^ ^ ^ ^ ^ ^ ^ ^ ^ ^ ^ ^ ^ ^ ^ ^ ^ ^ h F+~.e G+( ",
"H+A+I+J+K+L+M+N+O+E+]+|+1+(+_+#.^ ^ ^ ^ ^ ^ ^ ^ ^ ^ ^ ^ ^ ^ ^ ^ ^ ^ ^ ^ ^ ^ ^ ^ ^ ^ ^ h g P+Q+Y.g h ",
":+R+o+S+T+U+V+W+X+Y+~+|+Z+`+ @#.^ ^ ^ ^ ^ ^ ^ ^ ^ ^ ^ ^ ^ ^ ^ ^ ^ ^ ^ ^ ^ ^ ^ ^ ^ ^ ^ ^ g O .@h h ^ ",
":+a++@@@T+U+#@W+W+Y+~+|+$@`+ @#.^ ^ ^ ^ ^ ^ ^ ^ ^ ^ ^ ^ ^ ^ ^ ^ ^ ^ ^ ^ ^ ^ ^ ^ ^ ^ ^ ^ g O .@h h ^ ",
"q.G.%@&@J.#@W+*@W+=@~+|+$@`+ @#.^ ^ ^ ^ ^ ^ ^ ^ ^ ^ ^ ^ ^ ^ ^ ^ ^ ^ ^ ^ ^ ^ ^ ^ ^ ^ ^ ^ g O .@h h ^ ",
"-@;@>@,@'@)@*@*@W+=@~+|+$@`+ @#.^ ^ ^ ^ ^ ^ ^ ^ ^ ^ ^ ^ ^ ^ ^ ^ ^ ^ ^ ^ ^ ^ ^ ^ ^ ^ ^ ^ g O .@h h ^ ",
"!@~@++{@]@X+^@^@W+/@(@|+_@%+:@#.^ ^ ^ ^ ^ ^ ^ ^ ^ ^ ^ ^ ^ ^ ^ ^ ^ ^ ^ ^ ^ ^ ^ h h h h h g O .@h h ^ ",
"<@[@}@|@1@2@3@3@3@4@5@6@7@8@9@g g g g g g g g g g g g g g g g g g g g g g g g g g g g g ^ [..@g ( ^ ",
"0@a@b@c@d@e@f@f@f@f@g@h@i@j@k@l@l@l@l@l@l@l@l@l@l@l@l@l@l@l@l@l@l@l@l@l@l@l@l@l@l@l@l@l@e y+h f ^ h ",
"m@n@o@p@q@r@s@s@s@t@u@v@w@x@y@*+*+*+*+*+*+*+*+*+*+*+*+*+*+*+*+*+*+*+*+*+*+*+*+c c c c c k./ h ^ ( ^ "};
