/* XPM */
static const char * battery_dead_xpm[] = {
"50 31 228 2",
"  	c None",
". 	c #F7FBF6",
"+ 	c #EBCCC6",
"@ 	c #CB7D89",
"# 	c #CA7385",
"$ 	c #C47576",
"% 	c #D3ADB4",
"& 	c #E2E9E5",
"* 	c #E4E7E8",
"= 	c #E7E3E4",
"- 	c #E3EBE3",
"; 	c #E4E4E4",
"> 	c #E5E5E5",
", 	c #E9E9E9",
"' 	c #FBFBFB",
") 	c #FDFDFD",
"! 	c #FEFEFE",
"~ 	c #CC595A",
"{ 	c #9F0101",
"] 	c #C70010",
"^ 	c #CC011B",
"/ 	c #B60504",
"( 	c #BF7A84",
"_ 	c #D4E4DB",
": 	c #DADFE3",
"< 	c #DFD7DA",
"[ 	c #D4DED5",
"} 	c #DDDCDD",
"| 	c #DCDCDC",
"1 	c #DDDDDD",
"2 	c #DADADA",
"3 	c #DBDBDB",
"4 	c #CACACA",
"5 	c #C8C8C8",
"6 	c #FCFCFC",
"7 	c #FAFAFA",
"8 	c #BF0011",
"9 	c #BB0708",
"0 	c #B3040B",
"a 	c #BF0310",
"b 	c #C80400",
"c 	c #DF8795",
"d 	c #F2FFFC",
"e 	c #F9FFFF",
"f 	c #FDFAFD",
"g 	c #F8FFF9",
"h 	c #FFFFFF",
"i 	c #C7C7C7",
"j 	c #F4F4F4",
"k 	c #B8000F",
"l 	c #B90010",
"m 	c #B70010",
"n 	c #DC8C8F",
"o 	c #F6FFFF",
"p 	c #F9FEF7",
"q 	c #FFFDFF",
"r 	c #FCFDF9",
"s 	c #FDFDFE",
"t 	c #B6000F",
"u 	c #B6000E",
"v 	c #DC8B8F",
"w 	c #F9FEF8",
"x 	c #FBFEF9",
"y 	c #B3000E",
"z 	c #B3000D",
"A 	c #B0000D",
"B 	c #B0000C",
"C 	c #AF000C",
"D 	c #AE000B",
"E 	c #DD8B8F",
"F 	c #AF0011",
"G 	c #AF0010",
"H 	c #D78C8D",
"I 	c #F3FFFF",
"J 	c #F8FEF9",
"K 	c #FDFEF9",
"L 	c #C9C9C9",
"M 	c #D4D4D4",
"N 	c #E0E0E0",
"O 	c #F3F3F3",
"P 	c #AD000F",
"Q 	c #D88C8D",
"R 	c #FCFEF9",
"S 	c #E2E2E2",
"T 	c #D7D7D7",
"U 	c #C4C4C4",
"V 	c #F6F6F6",
"W 	c #AA000F",
"X 	c #AA000E",
"Y 	c #F9F9F9",
"Z 	c #D2D2D2",
"` 	c #EDEDED",
" .	c #A7000E",
"..	c #A6000D",
"+.	c #D3D3D3",
"@.	c #ECECEC",
"#.	c #A5000E",
"$.	c #A5000D",
"%.	c #A5000C",
"&.	c #F4FFFF",
"*.	c #FEFDFE",
"=.	c #D5D5D5",
"-.	c #EEEEEE",
";.	c #A20010",
">.	c #A20110",
",.	c #A2010E",
"'.	c #A2010D",
").	c #A2000B",
"!.	c #D38D8C",
"~.	c #FBFDFF",
"{.	c #F9FEFA",
"].	c #FAFEFF",
"^.	c #FFFFFB",
"/.	c #D1D1D1",
"(.	c #A1000F",
"_.	c #A1000E",
":.	c #A1000D",
"<.	c #A1000C",
"[.	c #A1000A",
"}.	c #FBFEFF",
"|.	c #FFFEFB",
"1.	c #9F000E",
"2.	c #9F000D",
"3.	c #9F000C",
"4.	c #9F000B",
"5.	c #9F0009",
"6.	c #D38D8D",
"7.	c #9D000E",
"8.	c #9D000D",
"9.	c #9D000C",
"0.	c #9D000A",
"a.	c #9C0008",
"b.	c #9C000D",
"c.	c #9C000C",
"d.	c #9B000B",
"e.	c #9B0009",
"f.	c #D28D8C",
"g.	c #FEFEFA",
"h.	c #99010E",
"i.	c #99000E",
"j.	c #97000C",
"k.	c #CF8D8B",
"l.	c #F9FEF9",
"m.	c #FBFFFF",
"n.	c #FEFCF9",
"o.	c #CCCCCC",
"p.	c #EFEFEF",
"q.	c #97010D",
"r.	c #96000C",
"s.	c #96000B",
"t.	c #94000C",
"u.	c #93000B",
"v.	c #92000B",
"w.	c #C6C6C6",
"x.	c #92010B",
"y.	c #92010C",
"z.	c #91000B",
"A.	c #91000A",
"B.	c #90000A",
"C.	c #D9D9D9",
"D.	c #BFBFBF",
"E.	c #8F000C",
"F.	c #8F000B",
"G.	c #8E000A",
"H.	c #CD8C8C",
"I.	c #F9FEFC",
"J.	c #FCFFFC",
"K.	c #FEFCFC",
"L.	c #FDFEFE",
"M.	c #8D000C",
"N.	c #8D000A",
"O.	c #CB8B8C",
"P.	c #F9FEFF",
"Q.	c #F9FDFF",
"R.	c #FDFFF9",
"S.	c #FFFBFF",
"T.	c #FDFEFD",
"U.	c #8D010C",
"V.	c #8C000B",
"W.	c #89010A",
"X.	c #890009",
"Y.	c #89010B",
"Z.	c #89000B",
"`.	c #89000A",
" +	c #8B000A",
".+	c #7F0B03",
"++	c #8A070E",
"@+	c #8D000E",
"#+	c #850707",
"$+	c #C68E91",
"%+	c #F0FEF7",
"&+	c #F7FDFB",
"*+	c #FCFAFB",
"=+	c #F8FEFD",
"-+	c #85000C",
";+	c #8F0609",
">+	c #870007",
",+	c #8C0411",
"'+	c #800200",
")+	c #C98B94",
"!+	c #F1FFF6",
"~+	c #FAFFFF",
"{+	c #FBFBFC",
"]+	c #F9FFFE",
"^+	c #CBCBCB",
"/+	c #F5F5F5",
"(+	c #AD6F76",
"_+	c #750108",
":+	c #87000E",
"<+	c #910011",
"[+	c #A70002",
"}+	c #B37986",
"|+	c #E3EBE4",
"1+	c #DCE6E5",
"2+	c #E7E5E4",
"3+	c #E2E4DF",
"4+	c #E5E5E6",
"5+	c #E6E6E6",
"6+	c #FAFCFD",
"7+	c #C3A69E",
"8+	c #B7908F",
"9+	c #B18C8C",
"0+	c #BA8B7C",
"a+	c #D5B3BB",
"b+	c #DADFDE",
"c+	c #E2E9E9",
"d+	c #E3DEDE",
"e+	c #DFE3DC",
". + @ # $ % & * = - ; ; ; ; ; ; ; ; ; ; ; ; ; ; ; ; ; ; ; ; ; ; ; ; ; ; ; ; ; > > > > > , ' ) ! ' ! ",
"~ { ] ^ / ( _ : < [ } | | | | | | | | | | | | | | | | | | | | | | | | | | | 1 2 2 2 2 3 4 5 6 7 6 ! ",
"8 9 0 a b c d e f g h h h h h h h h h h h h h h h h h h h h h h h h h h h h h h h h h h ! i j ) ! ) ",
"k l l k m n o p q r s ) ) ) ) ) ) ) ) ) ) ) ) ) ) ) ) ) ) ) ) ) ) ) ) ) ) ) ) ) ) ) ) ) h 4 j ) ) ! ",
"t t t t u v o w q x ! ! ! ! ! ! ! ! ! ! ! ! ! ! ! ! ! ! ! ! ! ! ! ! ! ! ! ! ! ! ! ! ! ! h 4 j ) ) ! ",
"y y y y z v o w q x ! ! ! ! ! ! ! ! ! ! ! ! ! ! ! ! ! ! ! ! ! ! ! ! ! ! ! ! ! ! ! ! ! ! h 4 j ) ) ! ",
"A A A A B v o w q x ! ! ! ! ! ! ! ! ! ! ! ! ! ! ! ! ! ! ! ! ! ! ! ! ! ! ! ! ! ! ! ! ! ! h 4 j ) ) ! ",
"C C C C D E o w q x ! ! ! ! ! ! ! ! ! ! ! ! ! ! ! ! ! ! ! ! ! ! ! ! ! ! ! ! ! ! ! ! ! ! h 4 j ) ) ! ",
"F F F F G H I J q K ! ! ! ! ! ! ! ! ! ! ! ! ! ! ! ! ! ! ! ! ! ! ! ! ! ! ! ! ! ! ! ! ! ) ! L M N O ) ",
"P P P P P Q I J q R ! ! ! ! ! ! ! ! ! ! ! ! ! ! ! ! ! ! ! ! ! ! ! ! ! ! ! ! ! ! ! ! ! ! ! , S T U V ",
"W W W W X Q I J q R ! ! ! ! ! ! ! ! ! ! ! ! ! ! ! ! ! ! ! ! ! ! ! ! ! ! ! ! ! ! ! ! ! ! ) Y 6 h Z ` ",
" . . . ...Q I J q R ! ! ! ! ! ! ! ! ! ! ! ! ! ! ! ! ! ! ! ! ! ! ! ! ! ! ! ! ! ! ! ! ! ) ! ' ) h +.@.",
"#.#.#.$.%.Q &.J q K *.! ! ! ! ! ! ! ! ! ! ! ! ! ! ! ! ! ! ! ! ! ! ! ! ! ! ! ! ! ! ! ! ! ) ! 6 6 =.-.",
";.>.,.'.).!.~.{.].^.s ! ! ! ! ! ! ! ! ! ! ! ! ! ! ! ! ! ! ! ! ! ! ! ! ! ! ! ! ! ! ! ! ) ) ! ! h /.-.",
"(._.:.<.[.!.~.{.}.|.s ! ! ! ! ! ! ! ! ! ! ! ! ! ! ! ! ! ! ! ! ! ! ! ! ! ! ! ! ! ! ! ! ! ) ! ! h /.-.",
"1.2.3.4.5.6.~.{.}.|.s ! ! ! ! ! ! ! ! ! ! ! ! ! ! ! ! ! ! ! ! ! ! ! ! ! ! ! ! ! ! ! ! ! ) ! ! h /.-.",
"7.8.9.0.a.6.~.{.}.|.s ! ! ! ! ! ! ! ! ! ! ! ! ! ! ! ! ! ! ! ! ! ! ! ! ! ! ! ! ! ! ! ! ! ) ! ! h /.-.",
"b.b.c.d.e.f.~.{.}.g.s ! ! ! ! ! ! ! ! ! ! ! ! ! ! ! ! ! ! ! ! ! ! ! ! ! ! ! ! ! ! ! ! ! ) ! ! h /.-.",
"h.i.h.j.j.k.].l.m.n.! ! ! ! ! ! ! ! ! ! ! ! ! ! ! ! ! ! ! ! ! ! ! ! ! ! ! ! ! ! ! ! ! ! 6 ! h 6 o.p.",
"q.q.q.r.s.k.].l.m.n.! ! ! ! ! ! ! ! ! ! ! ! ! ! ! ! ! ! ! ! ! ! ! ! ! ! ! ! ! ! ! ! ! ! ! 7 6 h =.` ",
"t.t.u.u.v.k.].l.m.n.! ! ! ! ! ! ! ! ! ! ! ! ! ! ! ! ! ! ! ! ! ! ! ! ! ! ! ! ! ! ! ! ! ! ' ' ' h w.p.",
"x.y.z.A.B.k.].l.m.n.! ! ! ! ! ! ! ! ! ! ! ! ! ! ! ! ! ! ! ! ! ! ! ! ! ! ! ! ! ! ! ! ! ! ) N C./.D.' ",
"E.E.F.F.G.H.].I.J.K.L.! ! ! ! ! ! ! ! ! ! ! ! ! ! ! ! ! ! ! ! ! ! ! ! ! ! ! ! ! ! ! ! ! h 5 | ; ' ! ",
"M.M.M.M.N.O.P.Q.R.S.T.! ! ! ! ! ! ! ! ! ! ! ! ! ! ! ! ! ! ! ! ! ! ! ! ! ! ! ! ! ! ! ! ! h 4 j ) ) ! ",
"U.U.U.U.V.O.P.Q.R.S.T.! ! ! ! ! ! ! ! ! ! ! ! ! ! ! ! ! ! ! ! ! ! ! ! ! ! ! ! ! ! ! ! ! h 4 j ) ) ! ",
"W.W.W.W.X.O.P.Q.R.S.T.! ! ! ! ! ! ! ! ! ! ! ! ! ! ! ! ! ! ! ! ! ! ! ! ! ! ! ! ! ! ! ! ! h 4 j ) ) ! ",
"Y.Z.`.W.X.O.P.Q.R.S.T.! ! ! ! ! ! ! ! ! ! ! ! ! ! ! ! ! ! ! ! ! ! ! ! ! ! ! ! ! ! ! ! ) h 4 j ) ) ! ",
" +.+++@+#+$+%+&+*+=+*.! ! ! ! ! ! ! ! ! ! ! ! ! ! ! ! ! ! ! ! ! ! ! ! ! ! ! ! ! ! ! ! ! h w.O ) ! ) ",
"-+;+>+,+'+)+!+~+{+]+h h h h h h h h h h h h h h h h h h h h h h h h h h h h h h h h h ! h ^+/+7 h ) ",
"(+_+:+<+[+}+|+1+2+3+4+> > > > > > > > > > > > > > > > > > > > > > > > > > > > > > > > 5+/.w.7 ! 6 ! ",
"6+7+8+9+0+a+b+c+d+e+S S S S S S S S S S S S S S S S S S S S S S S S S S S S S S S S S S 5+Y h 6 ! ) "};
