/* XPM */
static const char * battery_l2_xpm[] = {
"50 32 275 2",
"  	c None",
". 	c #F8FAF7",
"+ 	c #EEF5E2",
"@ 	c #E8F2D3",
"# 	c #E8F3D6",
"$ 	c #E7F3D9",
"% 	c #E9F2D8",
"& 	c #E8F3D8",
"* 	c #E2F4D6",
"= 	c #EAEFDC",
"- 	c #EAF1DC",
"; 	c #E7F2C1",
"> 	c #F2EDE6",
", 	c #F3F4F4",
"' 	c #F3F3F3",
") 	c #F5F5F5",
"! 	c #FCFCFC",
"~ 	c #FEFEFE",
"{ 	c #FBFBFB",
"] 	c #BEE4A1",
"^ 	c #7CAC35",
"/ 	c #75AE0A",
"( 	c #78AD1E",
"_ 	c #72B513",
": 	c #73B513",
"< 	c #71B613",
"[ 	c #6BB812",
"} 	c #72B313",
"| 	c #71B315",
"1 	c #6EB00E",
"2 	c #AECE79",
"3 	c #C2C0C5",
"4 	c #C2C2C2",
"5 	c #C4C4C4",
"6 	c #D7D7D7",
"7 	c #FDFDFD",
"8 	c #FFFFFF",
"9 	c #72C10D",
"0 	c #6CBE00",
"a 	c #73C606",
"b 	c #6DC009",
"c 	c #6FC215",
"d 	c #6DC107",
"e 	c #6DC108",
"f 	c #6EC108",
"g 	c #68BF0B",
"h 	c #71C207",
"i 	c #6AB511",
"j 	c #CFEDB6",
"k 	c #FFFDFF",
"l 	c #F6F6F6",
"m 	c #C8C8C8",
"n 	c #6EBF0E",
"o 	c #71C21A",
"p 	c #6BBC19",
"q 	c #6BC00F",
"r 	c #6AC303",
"s 	c #72BE0F",
"t 	c #72BF0E",
"u 	c #72BE0E",
"v 	c #74BE0E",
"w 	c #70BD15",
"x 	c #77C10C",
"y 	c #71C20C",
"z 	c #70B314",
"A 	c #E1EAC1",
"B 	c #FDFDFE",
"C 	c #F1F1F1",
"D 	c #73BA16",
"E 	c #73BE0B",
"F 	c #71C005",
"G 	c #70BD1D",
"H 	c #6CC00A",
"I 	c #6DBF0B",
"J 	c #70BE0B",
"K 	c #70BE0A",
"L 	c #70C117",
"M 	c #6EBD07",
"N 	c #69C204",
"O 	c #6EB608",
"P 	c #DCEAA6",
"Q 	c #FDFDFF",
"R 	c #CACACA",
"S 	c #F0F0F0",
"T 	c #70C00E",
"U 	c #70C00F",
"V 	c #71C00D",
"W 	c #71C00F",
"X 	c #72BF11",
"Y 	c #71BE13",
"Z 	c #75BF0C",
"` 	c #6DBE15",
" .	c #6DB906",
"..	c #D9EBC2",
"+.	c #FDFCFD",
"@.	c #C6C6C6",
"#.	c #6FBE0E",
"$.	c #70BE0E",
"%.	c #71BD10",
"&.	c #70BD0F",
"*.	c #75BF0B",
"=.	c #6DBF14",
"-.	c #D9EBC0",
";.	c #71BE10",
">.	c #71BD0F",
",.	c #6FBD11",
"'.	c #E6E6E6",
").	c #F8F8F8",
"!.	c #6EBC10",
"~.	c #6FBC10",
"{.	c #70BC0E",
"].	c #6FBC0E",
"^.	c #71BF13",
"/.	c #6EB906",
"(.	c #D0D0D0",
"_.	c #BEBEBE",
":.	c #D1D1D1",
"<.	c #6EBD11",
"[.	c #6EBD10",
"}.	c #72B817",
"|.	c #6CBE0D",
"1.	c #6FB815",
"2.	c #65B806",
"3.	c #DBEBC2",
"4.	c #FEFDFE",
"5.	c #F2F2F2",
"6.	c #72B917",
"7.	c #6DBE0D",
"8.	c #EBEBEB",
"9.	c #6FBD12",
"0.	c #D4D4D4",
"a.	c #EEEEEE",
"b.	c #6FBC12",
"c.	c #6EBC12",
"d.	c #D2D2D2",
"e.	c #EDEDED",
"f.	c #6FBC14",
"g.	c #6EBC13",
"h.	c #66B807",
"i.	c #6FBC16",
"j.	c #6EBC15",
"k.	c #74B819",
"l.	c #6DBE0F",
"m.	c #70B716",
"n.	c #68B709",
"o.	c #DCEAC4",
"p.	c #FDFEFE",
"q.	c #6FBB16",
"r.	c #6EBB15",
"s.	c #6DBE0E",
"t.	c #68B809",
"u.	c #DCEAC3",
"v.	c #6EBA15",
"w.	c #6EBA14",
"x.	c #73B718",
"y.	c #70B715",
"z.	c #67B708",
"A.	c #DBE9C3",
"B.	c #71BA15",
"C.	c #70BA14",
"D.	c #6CBD0D",
"E.	c #6FB615",
"F.	c #66B607",
"G.	c #DBE9C2",
"H.	c #73B719",
"I.	c #6CBD0E",
"J.	c #70B615",
"K.	c #67B608",
"L.	c #71BA14",
"M.	c #71B91C",
"N.	c #6DBD12",
"O.	c #74B616",
"P.	c #69B609",
"Q.	c #DAEBC1",
"R.	c #71B817",
"S.	c #70B816",
"T.	c #71B91D",
"U.	c #6DBC12",
"V.	c #73B518",
"W.	c #69B709",
"X.	c #DAEBC3",
"Y.	c #FAFAFA",
"Z.	c #F4F4F4",
"`.	c #BFBFBF",
" +	c #70B819",
".+	c #70B918",
"++	c #70B81D",
"@+	c #6DBC14",
"#+	c #73B519",
"$+	c #67B509",
"%+	c #D9EAC5",
"&+	c #CBCBCB",
"*+	c #C0C0C0",
"=+	c #DADADA",
"-+	c #6FB717",
";+	c #6FB817",
">+	c #70B71F",
",+	c #6CBB14",
"'+	c #73B41A",
")+	c #67B50A",
"!+	c #D9EAC4",
"~+	c #C5C5C5",
"{+	c #F9F9F9",
"]+	c #6FB718",
"^+	c #70B61E",
"/+	c #6BBB14",
"(+	c #73B41B",
"_+	c #68B50B",
":+	c #D9EAC6",
"<+	c #FEFEFD",
"[+	c #FEFEFC",
"}+	c #CCCCCC",
"|+	c #6EB517",
"1+	c #6EB617",
"2+	c #6EB717",
"3+	c #6EB614",
"4+	c #6EB616",
"5+	c #6EB518",
"6+	c #6EB61B",
"7+	c #6AB814",
"8+	c #72B31E",
"9+	c #69B50E",
"0+	c #DAEAC4",
"a+	c #FEFFF9",
"b+	c #FEFEFB",
"c+	c #6FB619",
"d+	c #6FB617",
"e+	c #6FB716",
"f+	c #6FB518",
"g+	c #6FB618",
"h+	c #68B50D",
"i+	c #FEFFFA",
"j+	c #6FB61A",
"k+	c #6FB61C",
"l+	c #6FB61B",
"m+	c #6FB517",
"n+	c #6FB51A",
"o+	c #7ABC2A",
"p+	c #6DB317",
"q+	c #70BA15",
"r+	c #6AB712",
"s+	c #6CB917",
"t+	c #6CB818",
"u+	c #6BB717",
"v+	c #69BA14",
"w+	c #6BB714",
"x+	c #6BB415",
"y+	c #D6EBC2",
"z+	c #FFFFFE",
"A+	c #C1EA91",
"B+	c #78A936",
"C+	c #6FAC1D",
"D+	c #71B41B",
"E+	c #6DB21D",
"F+	c #74B41E",
"G+	c #73B41E",
"H+	c #77B511",
"I+	c #72B71F",
"J+	c #6CB713",
"K+	c #6CA61A",
"L+	c #AFCE8E",
"M+	c #C2C1C4",
"N+	c #F9F7FA",
"O+	c #F2F9ED",
"P+	c #E0EECA",
"Q+	c #CCE1AC",
"R+	c #D1E9B0",
"S+	c #D2E8AC",
"T+	c #D2E8AD",
"U+	c #D1E9A6",
"V+	c #CEE8B5",
"W+	c #CEE9B3",
"X+	c #D2E8B1",
"Y+	c #EAF0DD",
"Z+	c #F3F2F3",
". + @ # $ % % % % % & & & & & & & & & & & & & & & & & & & & & & & & * = - ; > , ' ' ' ' ) ! ! ~ { ~ ",
"] ^ / / ( _ : : : _ < < < < < < < < < < < < < < < < < < < < < < < < [ } | 1 2 3 4 4 4 4 5 6 7 ! 8 7 ",
"9 0 a b c d e e e e f f f f f f f f f f f f f f f f f f f f f f f f g h e i j k 7 7 7 ~ l m ) ! 7 ~ ",
"n o p q r s t t t u v v v v v v v v v v v v v v v v v v v v v v v v w x y z A B 7 7 7 7 8 5 C 8 ~ 7 ",
"D E F s G H I I I I J J J J J J J J J J J J J J J J J J J J J J J K L M N O P Q 7 7 7 7 ~ R S 7 ! ~ ",
"T U U U V W W W W W X X X X X X X X X X X X X X X X X X X X X X X X Y Z `  ...+.! 7 ~ ~ 8 @.) ! 7 ~ ",
"#.#.#.#.#.#.#.#.#.$.%.&.&.&.&.&.&.&.&.&.&.&.&.&.&.&.&.&.&.&.&.&.&.&.Y *.=. .-.+.7 7 ~ ~ 8 m ) ~ ! ~ ",
"&.&.&.&.&.&.&.&.&.&.;.;.;.;.;.;.;.;.;.;.;.;.;.;.;.;.;.;.;.;.;.;.;.>.Y *.=. .-.+.7 7 ~ 7 8 @.' 8 ! ~ ",
",.,.,.,.,.,.,.,.,.,.&.&.&.&.&.&.&.&.&.&.&.&.&.&.&.&.&.&.&.&.&.&.&.&.Y *.=. .-.+.7 7 ~ ~ 8 R '.).8 7 ",
"!.!.!.!.!.!.!.!.!.~.{.{.{.{.{.{.{.{.{.{.{.{.{.{.{.{.{.{.{.{.{.{.{.].^.*.=./.-.+.! 7 7 ~ ~ (.5 _.:.8 ",
",.,.,.,.,.,.,.,.,.<.<.<.<.<.<.<.<.<.<.<.<.<.<.<.<.<.<.<.<.<.<.<.<.[.}.|.1.2.3.4.~ 7 8 8 ! ! ~ 7 4 5.",
",.,.,.,.,.,.,.,.,.,.,.,.,.,.,.,.,.,.,.,.,.,.,.,.,.,.,.,.,.,.,.,.,.[.6.7.1.2.3.4.~ 7 8 8 ~ 8 ~ 8 :.8.",
"9.9.9.9.9.9.9.9.9.9.9.9.9.9.9.9.9.9.9.9.9.9.9.9.9.9.9.9.9.9.9.9.9.<.6.7.1.2.3.4.~ 7 8 8 7 ~ 7 8 0.a.",
"b.b.b.b.b.b.b.b.b.b.b.b.b.b.b.b.b.b.b.b.b.b.b.b.b.b.b.b.b.b.b.b.b.c.6.7.1.2.3.4.~ 7 8 8 7 ~ ~ 8 d.e.",
"f.f.f.f.f.f.f.f.f.f.f.f.f.f.f.f.f.f.f.f.f.f.f.f.f.f.f.f.f.f.f.f.f.g.6.7.1.h.3.4.~ 7 8 8 ~ 8 8 8 d.e.",
"i.i.i.i.i.i.i.i.i.i.i.i.i.i.i.i.i.i.i.i.i.i.i.i.i.i.i.i.i.i.i.i.i.j.k.l.m.n.o.p.~ 7 8 8 7 ~ ~ 8 :.a.",
"q.q.q.q.q.q.q.q.q.q.q.q.q.q.q.q.q.q.q.q.q.q.q.q.q.q.q.q.q.q.q.q.q.r.k.s.m.t.u.B ~ 7 8 8 7 ~ ~ 8 :.a.",
"v.v.v.v.v.v.v.v.v.v.v.v.v.v.v.v.v.v.v.v.v.v.v.v.v.v.v.v.v.v.v.v.v.w.x.l.y.z.A.~ ~ 7 8 8 7 ~ ~ 8 :.a.",
"B.B.B.B.B.B.B.B.B.B.B.B.B.B.B.B.B.B.B.B.B.B.B.B.B.B.B.B.B.B.B.B.B.C.x.D.E.F.G.~ ~ 7 8 8 7 ~ ~ 8 :.a.",
"B.B.B.B.B.B.B.B.B.B.B.B.B.B.B.B.B.B.B.B.B.B.B.B.B.B.B.B.B.B.B.B.B.C.H.I.J.K.G.~ ~ 7 ~ ~ 7 ~ ~ 8 d.a.",
"L.L.L.L.L.L.L.L.L.L.L.L.L.L.L.L.L.L.L.L.L.L.L.L.L.L.L.L.L.L.L.L.L.C.M.N.O.P.Q.4.~ ~ 7 ~ 7 7 7 8 0.e.",
"R.R.R.R.R.R.R.R.R.R.R.R.R.R.R.R.R.R.R.R.R.R.R.R.R.R.R.R.R.R.R.R.R.S.T.U.V.W.X.4.~ ~ ~ 7 8 ).Y.Z.`.' ",
" + + + + + + + + + + + + + + + + + + + + + + + + + + + + + + + + +.+++@+#+$+%+~ ~ ~ ~ ~ 8 &+`.*+=+7 ",
"-+-+-+-+-+-+-+-+-+-+-+-+-+-+-+-+-+-+-+-+-+-+-+-+-+-+-+-+-+-+-+-+-+;+>+,+'+)+!+~ ~ ~ ~ 7 8 ~+S {+8 ~ ",
"]+-+-+-+-+-+-+-+-+-+]+]+]+]+]+]+]+]+]+]+]+]+]+]+]+]+]+]+]+]+]+]+]+-+^+/+(+_+:+<+[+<+<+7 8 }+5.~ ~ ! ",
"|+1+2+3+3+1+4+4+4+1+5+5+5+5+5+5+5+5+5+5+5+5+5+5+5+5+5+5+5+5+5+5+5+|+6+7+8+9+0+a+a+b+[+~ 8 R Z.7 7 ~ ",
"c+d+d+e+e+d+d+d+d+d+f+g+g+g+g+g+g+g+g+g+g+g+g+g+g+g+g+g+g+g+g+g+g+d+6+7+8+h+0+a+i+b+[+~ 8 R Z.7 7 ~ ",
"j+j+g+d+e+f+g+g+g+g+d+g+g+g+g+g+g+g+g+g+g+g+g+g+g+g+g+g+g+g+g+g+g+d+6+7+8+h+0+a+i+b+[+~ 8 R Z.7 7 ~ ",
"k+l+c+m+d+n+j+j+j+c+d+g+g+g+g+g+g+g+g+g+g+g+g+g+g+g+g+g+g+g+g+g+g+d+6+7+8+h+0+a+i+b+[+~ 8 R Z.7 7 ~ ",
"o+p+q+r+s+t+t+t+t+t+u+u+u+u+u+u+u+u+u+u+u+u+u+u+u+u+u+u+u+u+u+u+u+u+1.v+w+x+y+8 z+8 8 8 {+m l 7 ! ~ ",
"A+B+C+D+E+F+G+G+G+G+G+G+G+G+G+G+G+G+G+G+G+G+G+G+G+G+G+G+G+G+G+G+G+G+H+I+J+K+L+M+4 4 4 4 ~+0.! ~ 7 ~ ",
"N+O+P+Q+R+S+S+S+S+S+S+S+S+S+S+S+S+S+S+S+S+S+S+S+S+S+S+S+S+S+S+S+S+T+U+V+W+X+Y+Z+5.5.5.5.) 7 ! { 7 ~ "};
