/* XPM */
static const char * joy_xpm[] = {
"24 24 197 2",
"  	c None",
". 	c #99A1C9",
"+ 	c #989EC2",
"@ 	c #959ABB",
"# 	c #8891BF",
"$ 	c #8D9BD0",
"% 	c #7F88B4",
"& 	c #8B9CD2",
"* 	c #98AAD9",
"= 	c #727FBE",
"- 	c #A9BDEE",
"; 	c #94A6D7",
"> 	c #727FB5",
", 	c #8190CF",
"' 	c #99A8D9",
") 	c #B7C2E4",
"! 	c #B2BCE0",
"~ 	c #A0A9D4",
"{ 	c #8EA1E0",
"] 	c #93A5E0",
"^ 	c #8292CD",
"/ 	c #8592CA",
"( 	c #B3C2EA",
"_ 	c #B2C0EF",
": 	c #BAC6F5",
"< 	c #DBE5FC",
"[ 	c #E7F4FD",
"} 	c #CDD9EB",
"| 	c #A3ADD2",
"1 	c #92A6E2",
"2 	c #B0C0EC",
"3 	c #C6D6F4",
"4 	c #D4E9FF",
"5 	c #B1C0FF",
"6 	c #B2B9FF",
"7 	c #C1DBE9",
"8 	c #88D297",
"9 	c #B0E1BC",
"0 	c #D7E0EF",
"a 	c #999FC8",
"b 	c #8DA0E6",
"c 	c #AABEF1",
"d 	c #BDD0F5",
"e 	c #D3E5FC",
"f 	c #E0EAF8",
"g 	c #E5D1CC",
"h 	c #D0BACC",
"i 	c #D0D0EE",
"j 	c #C5DFD0",
"k 	c #98D59D",
"l 	c #C2E8CE",
"m 	c #F8FEFF",
"n 	c #D0D5E8",
"o 	c #969DC2",
"p 	c #98ACEC",
"q 	c #9EB2E7",
"r 	c #A7BAE1",
"s 	c #B6C6E0",
"t 	c #CDDEF1",
"u 	c #DBEEFF",
"v 	c #DFE2EC",
"w 	c #EDB497",
"x 	c #EEC4B2",
"y 	c #EDE2B8",
"z 	c #ECE297",
"A 	c #E8EED8",
"B 	c #EEF9FE",
"C 	c #F6FBFF",
"D 	c #FFFFFF",
"E 	c #BBC0D7",
"F 	c #8F96BD",
"G 	c #9AB1F2",
"H 	c #A7BBE7",
"I 	c #ADB9D0",
"J 	c #B9BEC6",
"K 	c #ADB1B5",
"L 	c #A2A9B2",
"M 	c #C9D7E8",
"N 	c #E1ECFB",
"O 	c #E6E0E1",
"P 	c #E7E7EE",
"Q 	c #EDEDD9",
"R 	c #F0EBCC",
"S 	c #EEF5F6",
"T 	c #F4FDFF",
"U 	c #F8FDFF",
"V 	c #FDFFFF",
"W 	c #ECEEF5",
"X 	c #9EA3C5",
"Y 	c #89A1EB",
"Z 	c #A1BBF4",
"` 	c #AFC0D8",
" .	c #B8BABC",
"..	c #B7B5B5",
"+.	c #9A9998",
"@.	c #8C8C8D",
"#.	c #C3CDD9",
"$.	c #E3F1FF",
"%.	c #E2F3FF",
"&.	c #E1F1FF",
"*.	c #DEEEFF",
"=.	c #D7E9FF",
"-.	c #C3D5F5",
";.	c #CAD6EF",
">.	c #EBF3F9",
",.	c #FCFEFF",
"'.	c #FEFDFE",
").	c #C7CCE0",
"!.	c #6D75A5",
"~.	c #8AA2EA",
"{.	c #A6C3F8",
"].	c #AFBED0",
"^.	c #A9A8A8",
"/.	c #989797",
"(.	c #898888",
"_.	c #A7A9AC",
":.	c #D5E0ED",
"<.	c #DEEDFF",
"[.	c #D6E8FF",
"}.	c #CEE5FF",
"|.	c #BFD7FA",
"1.	c #A0B3E1",
"2.	c #7280B2",
"3.	c #6F7AAC",
"4.	c #A6B1D5",
"5.	c #E1ECF9",
"6.	c #F5FCFF",
"7.	c #DDEAFB",
"8.	c #7983B0",
"9.	c #4E568C",
"0.	c #8498E3",
"a.	c #9FBBF4",
"b.	c #BBD1EC",
"c.	c #B8C1CC",
"d.	c #B0B5BD",
"e.	c #B9C1CA",
"f.	c #CCDAEC",
"g.	c #CDE4FE",
"h.	c #C4DFFF",
"i.	c #B8D3FD",
"j.	c #9FB6E7",
"k.	c #7989BC",
"l.	c #6874A8",
"m.	c #656FA4",
"n.	c #8894C1",
"o.	c #AEBDE0",
"p.	c #9EADD5",
"q.	c #9AB5F2",
"r.	c #BDD6FB",
"s.	c #D0E3F8",
"t.	c #D1E2F4",
"u.	c #D6E8FC",
"v.	c #C1DBFE",
"w.	c #A8C3F5",
"x.	c #93ABE0",
"y.	c #7689BE",
"z.	c #7789C0",
"A.	c #606BA3",
"B.	c #626CA5",
"C.	c #8B9BCC",
"D.	c #818EBF",
"E.	c #93AEEE",
"F.	c #B3CCF9",
"G.	c #D3E8FF",
"H.	c #D7EAFF",
"I.	c #D3E8FE",
"J.	c #A8C1F0",
"K.	c #6C7CB5",
"L.	c #5A669C",
"M.	c #59649B",
"N.	c #889FE5",
"O.	c #ABC4F4",
"P.	c #D0E5FF",
"Q.	c #D7E9FE",
"R.	c #D1E5FE",
"S.	c #97ADDF",
"T.	c #7B90D9",
"U.	c #9EB5ED",
"V.	c #CCE2FE",
"W.	c #DBECFF",
"X.	c #CEE2FD",
"Y.	c #8FA4D9",
"Z.	c #98B1EB",
"`.	c #C1D8FA",
" +	c #C3DBFC",
".+	c #859AD1",
"++	c #8AA2E1",
"@+	c #A8C4F5",
"#+	c #BDDDFF",
"$+	c #ADCBFD",
"%+	c #7588C1",
"&+	c #8AA3E0",
"*+	c #8EAAE3",
"=+	c #7C93CB",
"-+	c #6473AA",
";+	c #7B8FCC",
">+	c #6475AC",
"                      . .                       ",
"                      + @                       ",
"                    #                           ",
"                  $ %                           ",
"                &                               ",
"              *             =                   ",
"            - ; >   , '   ) ! ~                 ",
"            { ] ^ / ( _ : < [ } |               ",
"              1 2 3 4 5 6 7 8 9 0 a             ",
"        b   c d e f g h i j k l m n o           ",
"      p q r s t u v w x y z A B C D E F         ",
"    G H I J K L M N O P Q R S T U V W X         ",
"  Y Z `  ...+.@.#.$.%.&.*.=.-.;.>.,.'.).!.      ",
"  ~.{.].^./.(._.:.<.[.}.|.1.2.3.4.5.6.7.8.9.    ",
"  0.a.b.c.d.e.f.g.h.i.j.k.l.    m.n.o.p.        ",
"    q.r.s.t.u.v.w.x.y.z.A.        B.C.D.        ",
"    E.F.G.H.I.J.K.L.M.                          ",
"    N.O.P.Q.R.S.                                ",
"    T.U.V.W.X.Y.                                ",
"      Z.`.H. +.+                                ",
"      ++@+#+$+%+                                ",
"        &+*+=+-+                                ",
"          ;+>+                                  ",
"                                                "};
