/* XPM */
static const char * navigate_xpm[] = {
"24 24 232 2",
"  	c None",
". 	c #599B56",
"+ 	c #77AE74",
"@ 	c #9AC794",
"# 	c #6DAC65",
"$ 	c #48953F",
"% 	c #5E9F59",
"& 	c #85BD7A",
"* 	c #75B766",
"= 	c #64B152",
"- 	c #48A034",
"; 	c #268217",
"> 	c #569D4F",
", 	c #79B96A",
"' 	c #69B455",
") 	c #5BB041",
"! 	c #52B031",
"~ 	c #46AA24",
"{ 	c #329918",
"] 	c #509D47",
"^ 	c #71B95D",
"/ 	c #61B447",
"( 	c #53B232",
"_ 	c #4EB427",
": 	c #53B928",
"< 	c #54BB28",
"[ 	c #43AA20",
"} 	c #4D9E41",
"| 	c #6CB954",
"1 	c #5DB73D",
"2 	c #53B72B",
"3 	c #56BC29",
"4 	c #5DC32D",
"5 	c #62C830",
"6 	c #65CB32",
"7 	c #5BC22E",
"8 	c #4DA13E",
"9 	c #6CBC4F",
"0 	c #5DBB37",
"a 	c #59BE2B",
"b 	c #61C72F",
"c 	c #66CC33",
"d 	c #6BD037",
"e 	c #6CD33A",
"f 	c #58BC2F",
"g 	c #4DA43E",
"h 	c #6EC04F",
"i 	c #61C137",
"j 	c #60C62E",
"k 	c #67CD34",
"l 	c #6FD43B",
"m 	c #6CD53B",
"n 	c #3E9B22",
"o 	c #51A83F",
"p 	c #73C552",
"q 	c #67C63B",
"r 	c #65CB33",
"s 	c #70D53B",
"t 	c #5CC932",
"u 	c #247613",
"v 	c #55AD44",
"w 	c #7BCA59",
"x 	c #71CC45",
"y 	c #64CA35",
"z 	c #3CA322",
"A 	c #233209",
"B 	c #190000",
"C 	c #010000",
"D 	c #1D0303",
"E 	c #63B950",
"F 	c #86D466",
"G 	c #54B43B",
"H 	c #426A1D",
"I 	c #6F0F00",
"J 	c #FF1115",
"K 	c #B40000",
"L 	c #564B19",
"M 	c #444517",
"N 	c #000000",
"O 	c #7E1B1B",
"P 	c #7D0101",
"Q 	c #DD0C0C",
"R 	c #110000",
"S 	c #1C6F22",
"T 	c #82401C",
"U 	c #DF0201",
"V 	c #2F0000",
"W 	c #2C0000",
"X 	c #6F0000",
"Y 	c #020E03",
"Z 	c #22180C",
"` 	c #FF191A",
" .	c #1F0404",
"..	c #3A3B3B",
"+.	c #C50000",
"@.	c #1B0303",
"#.	c #8C1D1E",
"$.	c #E30104",
"%.	c #E70000",
"&.	c #560000",
"*.	c #8A8D2F",
"=.	c #8C8D2F",
"-.	c #F02C2C",
";.	c #BE0000",
">.	c #9EA0A0",
",.	c #AFAFAF",
"'.	c #384545",
").	c #C00000",
"!.	c #100000",
"~.	c #691111",
"{.	c #FF9090",
"].	c #FF0606",
"^.	c #F91B1B",
"/.	c #D61818",
"(.	c #8D8D2F",
"_.	c #8D8C2F",
":.	c #680000",
"<.	c #5E0404",
"[.	c #3E4444",
"}.	c #929292",
"|.	c #8E9090",
"1.	c #364D4D",
"2.	c #590707",
"3.	c #F30000",
"4.	c #370000",
"5.	c #D50404",
"6.	c #ED3434",
"7.	c #B0BABA",
"8.	c #E40808",
"9.	c #F30505",
"0.	c #ED3435",
"a.	c #1E1308",
"b.	c #162009",
"c.	c #514F1B",
"d.	c #EC0000",
"e.	c #102626",
"f.	c #091515",
"g.	c #180B0B",
"h.	c #DA0000",
"i.	c #EE0000",
"j.	c #DF0000",
"k.	c #D90000",
"l.	c #454545",
"m.	c #0E0E0E",
"n.	c #354444",
"o.	c #D00000",
"p.	c #9B0000",
"q.	c #C90000",
"r.	c #E6B9B9",
"s.	c #936D6D",
"t.	c #E10606",
"u.	c #FF2A2A",
"v.	c #EF2829",
"w.	c #030000",
"x.	c #797777",
"y.	c #0A0000",
"z.	c #8C0000",
"A.	c #DD0000",
"B.	c #FA0000",
"C.	c #ED0000",
"D.	c #EB1A1A",
"E.	c #F81717",
"F.	c #F00404",
"G.	c #FC1B1B",
"H.	c #660000",
"I.	c #070707",
"J.	c #0A0F0F",
"K.	c #540000",
"L.	c #1F0101",
"M.	c #F10202",
"N.	c #B25252",
"O.	c #B34949",
"P.	c #BE4343",
"Q.	c #FF0404",
"R.	c #800000",
"S.	c #850000",
"T.	c #FD0000",
"U.	c #F00000",
"V.	c #DE7E7E",
"W.	c #A63939",
"X.	c #D20000",
"Y.	c #6D8989",
"Z.	c #0E1515",
"`.	c #343434",
" +	c #616161",
".+	c #080000",
"++	c #D50000",
"@+	c #E00000",
"#+	c #E50F0F",
"$+	c #DA1F1F",
"%+	c #6A7373",
"&+	c #E30101",
"*+	c #F80000",
"=+	c #FF3333",
"-+	c #F51010",
";+	c #EA0000",
">+	c #753D3D",
",+	c #B10707",
"'+	c #545E5E",
")+	c #444444",
"!+	c #393939",
"~+	c #717171",
"{+	c #4F0000",
"]+	c #A00000",
"^+	c #A10000",
"/+	c #AA0000",
"(+	c #907272",
"_+	c #6C4545",
":+	c #E40B0B",
"<+	c #EB0101",
"[+	c #E37272",
"}+	c #264242",
"|+	c #C20000",
"1+	c #B30000",
"2+	c #AD0000",
"3+	c #4B0000",
"4+	c #EB0505",
"5+	c #A14646",
"6+	c #E30505",
"7+	c #F20000",
"8+	c #951616",
"9+	c #717979",
"0+	c #5C0000",
"a+	c #280000",
"b+	c #0C0C0C",
"c+	c #3A3A3A",
"d+	c #2D0000",
"e+	c #D70000",
"f+	c #060505",
"g+	c #111111",
"h+	c #434343",
"i+	c #8B0000",
"          .                                     ",
"        + @ # $                                 ",
"        % & * = - ;                             ",
"        > , ' ) ! ~ {                           ",
"        ] ^ / ( _ : < [                         ",
"        } | 1 2 3 4 5 6 7                       ",
"        8 9 0 a b c d e f                       ",
"        g h i j k l m n                         ",
"        o p q r s t u                           ",
"        v w x y z A B C         D               ",
"        E F G H I J K L M N O P Q R             ",
"          S T U V W X Y Z ` V  ...+.N           ",
"      @.#.$.%.&.*.=.N -.;.N >.,.'.).!.          ",
"    ~.{.].^./.N (._.N :.<.[.}.|.1.2.3.4.N       ",
"  N 5.6.7.8.9.0.a.b.c.N d.e.f.g.h.d.i.j.k.N   l.",
"m.n.o.p.q.r.s.t.u.v.w.x.y.z.A.B.C.i.D.E.F.G.H.  ",
"I.J.K.N L.o.M.N.O.P.Q.R.S.T.U.d.C.i.V.W.X.Y.Z.`.",
"    N  +N .+++@+#+$+%+&+*+C.C.=+-+*+;+>+,+'+)+!+",
"    N ~+N N N {+]+^+/+(+_+:+<+C.[+}+|+1+2+N N   ",
"      N N N       N N 3+4+5+6+7+8+9+0+a+N N N   ",
"                  b+c+N d+++d.e+f+g+N N N       ",
"                  m.h+N N N z.i+N N N           ",
"                  N N N N     N C N             ",
"                                                "};
