/* XPM */
static const char * place_robot_xpm[] = {
"24 24 320 2",
"  	c None",
". 	c #6F8B42",
"+ 	c #A7BB89",
"@ 	c #A7BB87",
"# 	c #B0C393",
"$ 	c #B0C493",
"% 	c #A9BE87",
"& 	c #AABF88",
"* 	c #A9BF88",
"= 	c #ABC088",
"- 	c #AAC087",
"; 	c #ABC189",
"> 	c #BFD0A5",
", 	c #A9BF85",
"' 	c #ABC188",
") 	c #A9BF87",
"! 	c #A3BA80",
"~ 	c #B7C99C",
"{ 	c #A0B77D",
"] 	c #A6BB86",
"^ 	c #839E58",
"/ 	c #76914D",
"( 	c #B6C79B",
"_ 	c #B0C392",
": 	c #BCCDA3",
"< 	c #BDCEA2",
"[ 	c #B2C692",
"} 	c #B2C792",
"| 	c #B3C792",
"1 	c #B4C893",
"2 	c #B5CA95",
"3 	c #D1DEBE",
"4 	c #B2C790",
"5 	c #B2C793",
"6 	c #CDDAB8",
"7 	c #B0C490",
"8 	c #B8C99D",
"9 	c #97AE73",
"0 	c #78944D",
"a 	c #BCCCA2",
"b 	c #B8CA9E",
"c 	c #C4D3AC",
"d 	c #C4D4AC",
"e 	c #BACD9E",
"f 	c #BBCE9E",
"g 	c #BBCF9E",
"h 	c #BCCF9E",
"i 	c #BCD09E",
"j 	c #BDD09F",
"k 	c #C4D5A9",
"l 	c #BCD09D",
"m 	c #D2DEBF",
"n 	c #B8CB9C",
"o 	c #BFCFA5",
"p 	c #9BB377",
"q 	c #79964A",
"r 	c #A2B97C",
"s 	c #98B46E",
"t 	c #A7C083",
"u 	c #A9C183",
"v 	c #9BB86E",
"w 	c #9CB96F",
"x 	c #9DBB6F",
"y 	c #9EBB6F",
"z 	c #9EBC6F",
"A 	c #9CBA6F",
"B 	c #9DBA6F",
"C 	c #BDCF9F",
"D 	c #98B46A",
"E 	c #A0BA77",
"F 	c #99B272",
"G 	c #7B9A4A",
"H 	c #9AB670",
"I 	c #8FAE5F",
"J 	c #A1BC77",
"K 	c #A2BD77",
"L 	c #93B460",
"M 	c #94B560",
"N 	c #95B660",
"O 	c #95B760",
"P 	c #96B860",
"Q 	c #97B960",
"R 	c #97B860",
"S 	c #B6CB93",
"T 	c #91B15E",
"U 	c #96B368",
"V 	c #99B470",
"W 	c #7C9C48",
"X 	c #92B162",
"Y 	c #86A950",
"Z 	c #99B76A",
"` 	c #9AB96A",
" .	c #8AB051",
"..	c #8CB151",
"+.	c #8DB252",
"@.	c #8DB352",
"#.	c #8EB452",
"$.	c #8EB552",
"%.	c #8FB552",
"&.	c #8BB051",
"*.	c #AFC888",
"=.	c #89AD52",
"-.	c #8DAF57",
";.	c #98B56D",
">.	c #7DA048",
",.	c #89AB55",
"'.	c #7FA643",
").	c #92B45E",
"!.	c #95B75F",
"~.	c #84AC44",
"{.	c #84AE44",
"].	c #85AF43",
"^.	c #87B145",
"/.	c #88B245",
"(.	c #88B345",
"_.	c #86B044",
":.	c #85AE44",
"<.	c #A7C47A",
"[.	c #84AB48",
"}.	c #84AA49",
"|.	c #97B567",
"1.	c #80A448",
"2.	c #9FBC73",
"3.	c #9EBC6D",
"4.	c #A8C47D",
"5.	c #7CA936",
"6.	c #7DAB36",
"7.	c #7EAD36",
"8.	c #80AE37",
"9.	c #80AF37",
"0.	c #81B038",
"a.	c #82B039",
"b.	c #81AF37",
"c.	c #7FAE37",
"d.	c #AAC77D",
"e.	c #A4C274",
"f.	c #A1BF71",
"g.	c #9CBB6C",
"h.	c #80A644",
"i.	c #7BA53B",
"j.	c #72A02B",
"k.	c #88B14A",
"l.	c #88B146",
"m.	c #75A626",
"n.	c #76A928",
"o.	c #78A929",
"p.	c #7AAA2B",
"q.	c #7BAB2D",
"r.	c #7BAC2E",
"s.	c #7CAC2E",
"t.	c #7BAC2D",
"u.	c #79AA2C",
"v.	c #78AA2A",
"w.	c #76A828",
"x.	c #9ABE61",
"y.	c #7DAA37",
"z.	c #76A42F",
"A.	c #93B65C",
"B.	c #81A843",
"C.	c #729F2B",
"D.	c #6A9C1C",
"E.	c #82AC3D",
"F.	c #83B03D",
"G.	c #71A51F",
"H.	c #73A620",
"I.	c #74A723",
"J.	c #77A825",
"K.	c #78A926",
"L.	c #78A927",
"M.	c #79AA29",
"N.	c #79AA28",
"O.	c #78A928",
"P.	c #76A725",
"Q.	c #74A722",
"R.	c #73A621",
"S.	c #95BC57",
"T.	c #75A627",
"U.	c #6EA01E",
"V.	c #90B556",
"W.	c #84AB45",
"X.	c #73A129",
"Y.	c #6C9E1B",
"Z.	c #83AF3D",
"`.	c #86B13F",
" +	c #75A724",
".+	c #78A826",
"++	c #7BAA2A",
"@+	c #7BAB2B",
"#+	c #7CAC2D",
"$+	c #7CAC2C",
"%+	c #7CAB2B",
"&+	c #7AAB29",
"*+	c #77A826",
"=+	c #75A723",
"-+	c #93BA54",
";+	c #7AAA2E",
">+	c #6FA21D",
",+	c #92B756",
"'+	c #5C8619",
")+	c #86AE48",
"!+	c #6FA021",
"~+	c #699E14",
"{+	c #81AF38",
"]+	c #84B13C",
"^+	c #71A41D",
"/+	c #76A823",
"(+	c #7AAA27",
"_+	c #7BAB29",
":+	c #7BAB2A",
"<+	c #7BAC2A",
"[+	c #7BAB28",
"}+	c #79AA27",
"|+	c #78A925",
"1+	c #75A823",
"2+	c #74A520",
"3+	c #91B94F",
"4+	c #7AAA2C",
"5+	c #6CA117",
"6+	c #91B853",
"7+	c #5F8A1C",
"8+	c #8CB24F",
"9+	c #A5C574",
"0+	c #AECB80",
"a+	c #BDD597",
"b+	c #BBD393",
"c+	c #B3CF85",
"d+	c #B4D087",
"e+	c #B5D088",
"f+	c #B7D18B",
"g+	c #B8D28C",
"h+	c #B8D28D",
"i+	c #BCD592",
"j+	c #B6D08A",
"k+	c #C2D89E",
"l+	c #B8D28F",
"m+	c #B0CD81",
"n+	c #A4C571",
"o+	c #608C1B",
"p+	c #8BB34D",
"q+	c #70A21F",
"r+	c #89B343",
"s+	c #84B039",
"t+	c #76A722",
"u+	c #78AA26",
"v+	c #7EAE2F",
"w+	c #83B135",
"x+	c #B2CE82",
"y+	c #7EAE2C",
"z+	c #81B030",
"A+	c #7DAC2C",
"B+	c #7BAA28",
"C+	c #90B84D",
"D+	c #81AE35",
"E+	c #6EA31A",
"F+	c #92BA53",
"G+	c #659121",
"H+	c #90B752",
"I+	c #93BB52",
"J+	c #88B43F",
"K+	c #7CAC2B",
"L+	c #80AF32",
"M+	c #85B337",
"N+	c #89B63D",
"O+	c #B6D288",
"P+	c #84B234",
"Q+	c #87B338",
"R+	c #84B236",
"S+	c #82B134",
"T+	c #80AF31",
"U+	c #7FAE2D",
"V+	c #94BB52",
"W+	c #8AB542",
"X+	c #75A822",
"Y+	c #97BE57",
"Z+	c #6A9724",
"`+	c #63901C",
" @	c #618F19",
".@	c #649219",
"+@	c #6D9927",
"@@	c #709C2B",
"#@	c #74A02E",
"$@	c #79A435",
"%@	c #7FA83D",
"&@	c #8CB14F",
"*@	c #94B75D",
"=@	c #A2C072",
"-@	c #98B962",
";@	c #8EB253",
">@	c #87AC4B",
",@	c #80A842",
"'@	c #7AA33A",
")@	c #78A038",
"!@	c #6F982F",
"~@	c #659020",
"{@	c #608C1D",
"]@	c #517914",
"^@	c #598315",
"/@	c #5A8516",
"(@	c #5B8716",
"_@	c #5B8815",
":@	c #5C8915",
"<@	c #5D8A16",
"[@	c #5D8B15",
"}@	c #5E8B15",
"|@	c #5E8B14",
"1@	c #5D8C13",
"2@	c #5D8B12",
"3@	c #5C8B11",
"4@	c #5C8B12",
"5@	c #5C8A13",
"6@	c #5C8914",
"7@	c #5B8914",
"8@	c #5B8814",
"9@	c #5A8714",
"0@	c #5A8514",
"a@	c #598515",
"b@	c #496D12",
"c@	c #2C410A",
"d@	c #2C410B",
"e@	c #2C420B",
"                                                ",
"                                                ",
"                                                ",
"  . + @ # $ % & * = - ; > , ' ' & ) ! ~ { ] ^   ",
"  / ( _ : < [ } | | 1 2 3 4 1 1 | | 5 6 7 8 9   ",
"  0 a b c d e f g h i j k l i i h f f m n o p   ",
"  q r s t u v w w x y z z z z z A B w C D E F   ",
"  G H I J K L M N O P P Q R P O N N M S T U V   ",
"  W X Y Z `  ...+.@.#.$.%.%.$.#.@.+.&.*.=.-.;.  ",
"  >.,.'.).!.~.{.].^./.(.(.(.(./._.].:.<.[.}.|.  ",
"  1.2.3.4.#.5.6.7.8.9.0.a.a.0.b.c.7.6.d.e.f.g.  ",
"  h.i.j.k.l.m.n.o.p.q.r.s.s.t.q.u.v.w.x.y.z.A.  ",
"  B.C.D.E.F.G.H.I.J.K.L.M.N.O.L.P.Q.R.S.T.U.V.  ",
"  W.X.Y.Z.`.R. +.+M.++@+#+$+%+&+N.*+=+-+;+>+,+'+",
"  )+!+~+{+]+^+H./+K.(+_+:+<+[+}+|+1+2+3+4+5+6+7+",
"  8+9+0+a+b+c+d+e+f+g+h+i+g+g+g+j+e+d+k+l+m+n+o+",
"  p+q+5+r+s+t+u+_+#+v+w+x+y+z+v+A+B+|+C+D+E+F+G+",
"  H+ +H.I+J+K+v+L+w+M+N+O+P+Q+R+S+T+U+V+W+X+Y+Z+",
"  `+ @.@+@@@#@$@%@~.&@*@=@-@A.;@>@,@'@)@!@~@{@]@",
"  ^@/@(@_@:@<@[@}@|@1@2@3@4@2@5@6@7@8@9@0@a@^@b@",
"  c@d@d@d@d@d@d@d@d@d@d@d@d@d@d@d@d@d@d@d@d@e@  ",
"                                                ",
"                                                ",
"                                                "};
