/* XPM */
static const char * relocalize_xpm[] = {
"24 24 212 2",
"  	c None",
". 	c #1D0201",
"+ 	c #190000",
"@ 	c #000000",
"# 	c #D41D16",
"$ 	c #FF9E78",
"% 	c #F7110C",
"& 	c #770000",
"* 	c #790000",
"= 	c #FFBB8C",
"- 	c #FE8161",
"; 	c #FF0000",
"> 	c #F90000",
", 	c #4B0000",
"' 	c #E53427",
") 	c #FED29D",
"! 	c #820000",
"~ 	c #980806",
"{ 	c #FB9A73",
"] 	c #FF0201",
"^ 	c #FE0000",
"/ 	c #FA0000",
"( 	c #3E0000",
"_ 	c #E0231A",
": 	c #FF120D",
"< 	c #8E0000",
"[ 	c #480000",
"} 	c #ED0000",
"| 	c #650404",
"1 	c #660000",
"2 	c #F80000",
"3 	c #2D0000",
"4 	c #5B0606",
"5 	c #769696",
"6 	c #627979",
"7 	c #590000",
"8 	c #250000",
"9 	c #5B5A5A",
"0 	c #FAFDFD",
"a 	c #6D7070",
"b 	c #020202",
"c 	c #010101",
"d 	c #7B7C7C",
"e 	c #D2D2D2",
"f 	c #222121",
"g 	c #6F6867",
"h 	c #8A7D7D",
"i 	c #908282",
"j 	c #8F8281",
"k 	c #8C807F",
"l 	c #7E7777",
"m 	c #4B4949",
"n 	c #060606",
"o 	c #4D4847",
"p 	c #E1CBCA",
"q 	c #D2F3F0",
"r 	c #C4FFFF",
"s 	c #C1FFFF",
"t 	c #BCFFFE",
"u 	c #C0F8F7",
"v 	c #D2E9E8",
"w 	c #DFCFCE",
"x 	c #DACDCC",
"y 	c #AFABAB",
"z 	c #272626",
"A 	c #171616",
"B 	c #D2E8E7",
"C 	c #96F1F6",
"D 	c #66DDEB",
"E 	c #3DB2CC",
"F 	c #279CBF",
"G 	c #5FD1E1",
"H 	c #79DDE9",
"I 	c #8BEEF4",
"J 	c #94FDFE",
"K 	c #B8F6F3",
"L 	c #D9DBDA",
"M 	c #EFE9E9",
"N 	c #9A9595",
"O 	c #141414",
"P 	c #514D4D",
"Q 	c #112C2D",
"R 	c #79ECFD",
"S 	c #4BB5CF",
"T 	c #68CEDE",
"U 	c #90D0E0",
"V 	c #91CCDE",
"W 	c #7AABC7",
"X 	c #748BB2",
"Y 	c #408CB3",
"Z 	c #1E86AF",
"` 	c #4FA8C6",
" .	c #94FFFF",
"..	c #BEF5F2",
"+.	c #E3E9E9",
"@.	c #D0C7C6",
"#.	c #4A4A4A",
"$.	c #E3DFDF",
"%.	c #1C2526",
"&.	c #A9FFFF",
"*.	c #98FFFF",
"=.	c #D2FFFF",
"-.	c #FFFFFF",
";.	c #DEFFFF",
">.	c #C0FFFF",
",.	c #BFF8FA",
"'.	c #A3E8EF",
").	c #42ACC8",
"!.	c #074784",
"~.	c #3FADC9",
"{.	c #A4FFFF",
"].	c #D3DFDE",
"^.	c #DAD1D0",
"/.	c #323131",
"(.	c #0B0B0B",
"_.	c #D8D6D6",
":.	c #9B9999",
"<.	c #6BBFBF",
"[.	c #95FFFF",
"}.	c #BDFEFE",
"|.	c #A5FFFF",
"1.	c #89FFFF",
"2.	c #93FFFF",
"3.	c #96FFFF",
"4.	c #99FFFF",
"5.	c #A3FFFF",
"6.	c #2788B0",
"7.	c #257CA7",
"8.	c #8DF6FA",
"9.	c #D9E5E3",
"0.	c #928A8A",
"a.	c #D6D6D6",
"b.	c #DAD3D3",
"c.	c #9AAEAE",
"d.	c #85EEEE",
"e.	c #BCFEFE",
"f.	c #97FFFF",
"g.	c #99FEFE",
"h.	c #9DFFFF",
"i.	c #AAFFFF",
"j.	c #6BC5D8",
"k.	c #1A78A6",
"l.	c #D0CAC9",
"m.	c #100F0F",
"n.	c #868686",
"o.	c #E8E7E7",
"p.	c #D5CFCF",
"q.	c #A1A1A1",
"r.	c #69C1C1",
"s.	c #9EFFFF",
"t.	c #77DCE8",
"u.	c #2B96BD",
"v.	c #BDD2CF",
"w.	c #0F0D0D",
"x.	c #B1B1B1",
"y.	c #DFDEDE",
"z.	c #D8D4D4",
"A.	c #C1B4B4",
"B.	c #5F7777",
"C.	c #8CDFDF",
"D.	c #8DEBEB",
"E.	c #99FDFD",
"F.	c #9BFFFF",
"G.	c #9AFFFF",
"H.	c #9CFFFF",
"I.	c #B1FFFF",
"J.	c #43B3D3",
"K.	c #4C6D6B",
"L.	c #8D8D8D",
"M.	c #EAEAEA",
"N.	c #D9D7D7",
"O.	c #DDD5D5",
"P.	c #9E8E8E",
"Q.	c #7C8D8D",
"R.	c #688F8F",
"S.	c #487F7F",
"T.	c #65B5B5",
"U.	c #82E0E0",
"V.	c #8BEFEF",
"W.	c #83E1E1",
"X.	c #6BB2B1",
"Y.	c #29575F",
"Z.	c #080808",
"`.	c #2D2D2D",
" +	c #E8E8E8",
".+	c #DBDADA",
"++	c #D9D5D5",
"@+	c #CCC5C5",
"#+	c #C9C2C2",
"$+	c #919191",
"%+	c #5B5959",
"&+	c #4F4D4D",
"*+	c #545454",
"=+	c #565353",
"-+	c #AAA8A7",
";+	c #9E9897",
">+	c #3F3F3F",
",+	c #B6B6B6",
"'+	c #D1D1D1",
")+	c #D5D5D5",
"!+	c #E1DFDF",
"~+	c #E8E6E6",
"{+	c #ECEAEA",
"]+	c #EAE8E8",
"^+	c #EBE9E9",
"/+	c #949292",
"(+	c #2A2929",
"_+	c #494949",
":+	c #515151",
"<+	c #525151",
"[+	c #545353",
"}+	c #3B3B3B",
"                                . + @           ",
"                            @ # $ % & @         ",
"                            * = - ; > ,         ",
"                            ' ) ; ; ; ! @       ",
"                          ~ { ] ; ^ / (         ",
"                          _ : ; ^ ; < @         ",
"                        [ } | 1 / 2 @           ",
"                        3 4 5 6 7 8 @           ",
"              @ @ @       9 0 a @ @             ",
"        @ @ @ @ b b c @ @ d e @ @ @             ",
"      @ @ f g h i j k l m n @ @                 ",
"    @ @ o p q r s t u v w x y z @               ",
"    @ A B C D E F G H I J K L M N O             ",
"    P Q R S T U V W X Y Z `  ...+.@.#.          ",
"  @ $.%.&.*.=.-.-.;.>.,.'.).!.~.{.].^./.        ",
"  (._.:.<.[.}.-.|.1.2.3.4.&.5.6.7.8.9.0.        ",
"  @ a.b.c.d.4.e.[.f.4.4.*.g.h.i.j.k.&.l.m.      ",
"    n.o.p.q.r.s.4.*.*.*.*.*.4.4.5.t.u.v.w.      ",
"    @ x.y.z.A.B.C.D.E.h.F.G.4.4.H.I.J.K.        ",
"      @ L.M.N.O.P.Q.R.S.T.U.V.4.W.X.Y.@         ",
"        Z.`. +M..+++@+#+$+%+&+*+=+-+;+@         ",
"          @ @ >+,+'+)+.+!+~+{+]+^+/+@           ",
"              @   c (+_+:+<+[+}+b @             ",
"                        @ @ @ @                 "};
