/* XPM */
static const char * resume_xpm[] = {
"24 24 212 2",
"  	c None",
". 	c #F5F5FA",
"+ 	c #C2C2CD",
"@ 	c #F3F3F9",
"# 	c #E9EAEF",
"$ 	c #CFD1DC",
"% 	c #C4C6D4",
"& 	c #D9DAE4",
"* 	c #EBEBEF",
"= 	c #EDEDF5",
"- 	c #C0C1C9",
"; 	c #D5D5DB",
"> 	c #A7ABBE",
", 	c #9398AF",
"' 	c #B9BCCC",
") 	c #C0C4D3",
"! 	c #BEC2D1",
"~ 	c #B6B9CA",
"{ 	c #D7D9E4",
"] 	c #C4C4CB",
"^ 	c #DDDEE9",
"/ 	c #E3E4ED",
"( 	c #9CA0B6",
"_ 	c #AFB3C6",
": 	c #BDC0D1",
"< 	c #BEC2D3",
"[ 	c #BFC3D3",
"} 	c #BEC3D3",
"| 	c #BDC0D2",
"1 	c #B9BDCF",
"2 	c #D6D7E4",
"3 	c #ADB0C6",
"4 	c #757581",
"5 	c #C7C9DA",
"6 	c #A1A6BD",
"7 	c #B6B9CD",
"8 	c #BBBED1",
"9 	c #C3C6D6",
"0 	c #C9CCD9",
"a 	c #CACCDA",
"b 	c #B6BACE",
"c 	c #B0B4C9",
"d 	c #B3B6CC",
"e 	c #5C5D6C",
"f 	c #999EB7",
"g 	c #ACB0C7",
"h 	c #B4B8CD",
"i 	c #959AB5",
"j 	c #646880",
"k 	c #21222B",
"l 	c #6A6E86",
"m 	c #9095B0",
"n 	c #B6B9CE",
"o 	c #A0A4BD",
"p 	c #9296B2",
"q 	c #ACAEC0",
"r 	c #B8BBCF",
"s 	c #979CB7",
"t 	c #AAAEC6",
"u 	c #B5B8CF",
"v 	c #9B9FB9",
"w 	c #9A9EB8",
"x 	c #AEB2C9",
"y 	c #979AB6",
"z 	c #8D91AF",
"A 	c #9B9FB8",
"B 	c #9194AA",
"C 	c #898DA6",
"D 	c #A2A5C0",
"E 	c #989DBA",
"F 	c #A8ACC6",
"G 	c #B7BAD1",
"H 	c #B3B5CC",
"I 	c #B0B3CA",
"J 	c #B2B4CC",
"K 	c #A3A6BF",
"L 	c #9398B4",
"M 	c #7F839F",
"N 	c #56596F",
"O 	c #5B5D6E",
"P 	c #9A9FBD",
"Q 	c #ABADC8",
"R 	c #BBBED5",
"S 	c #C8C9DE",
"T 	c #DBDBEA",
"U 	c #E1E1EC",
"V 	c #D8D9E9",
"W 	c #C6C7DC",
"X 	c #BEBFD5",
"Y 	c #ACAEC7",
"Z 	c #9499B6",
"` 	c #454758",
" .	c #9C9EAF",
"..	c #9095B2",
"+.	c #C2C3D8",
"@.	c #D4D4E7",
"#.	c #D6D6E8",
"$.	c #D5D5E7",
"%.	c #C5C6DB",
"&.	c #B8BAD0",
"*.	c #858BA8",
"=.	c #5C5F79",
"-.	c #767B9A",
";.	c #747894",
">.	c #A7ABC1",
",.	c #CDCFE0",
"'.	c #D4D5E7",
").	c #D5D5E8",
"!.	c #CFD0E1",
"~.	c #A6AAC0",
"{.	c #5F637F",
"].	c #656B88",
"^.	c #5E627A",
"/.	c #9CA1B8",
"(.	c #E7E8F0",
"_.	c #E6E6F1",
":.	c #E0E0EE",
"<.	c #EAEBF2",
"[.	c #9A9EB6",
"}.	c #50546C",
"|.	c #B9B8BB",
"1.	c #F3F3F7",
"2.	c #696C84",
"3.	c #6F7594",
"4.	c #606580",
"5.	c #7B819D",
"6.	c #8A8FA9",
"7.	c #7D829E",
"8.	c #595D79",
"9.	c #686F8C",
"0.	c #4D516A",
"a.	c #E3E3EC",
"b.	c #C3C6D3",
"c.	c #A5A9BD",
"d.	c #B4B7C8",
"e.	c #CBCDDA",
"f.	c #EBECF3",
"g.	c #68708E",
"h.	c #4C5169",
"i.	c #AFAFB8",
"j.	c #DBDBE2",
"k.	c #9DA2B7",
"l.	c #E7E7F1",
"m.	c #EDEDF6",
"n.	c #E0E1EC",
"o.	c #DEDEE8",
"p.	c #C2C4D3",
"q.	c #252837",
"r.	c #686973",
"s.	c #B2B6CA",
"t.	c #E0E1ED",
"u.	c #E7E7F3",
"v.	c #D3D5E2",
"w.	c #D0D2DF",
"x.	c #DEDFEB",
"y.	c #DADBE9",
"z.	c #CFD1E0",
"A.	c #9597AF",
"B.	c #A7ABC3",
"C.	c #D0D2E2",
"D.	c #ACAFC6",
"E.	c #3D4050",
"F.	c #868AA6",
"G.	c #C9CADD",
"H.	c #A8ABC3",
"I.	c #9C9FB8",
"J.	c #898CA0",
"K.	c #ABAFC8",
"L.	c #A7AAC5",
"M.	c #B9BBD2",
"N.	c #ABAEC7",
"O.	c #9EA0B2",
"P.	c #A5A8C1",
"Q.	c #9A9EB9",
"R.	c #9195B2",
"S.	c #7C819D",
"T.	c #484A57",
"U.	c #999EBC",
"V.	c #9FA3C0",
"W.	c #AAADC7",
"X.	c #DCDCE9",
"Y.	c #E1E0EA",
"Z.	c #C3C4D9",
"`.	c #979BB6",
" +	c #8D91AE",
".+	c #7B7F9C",
"++	c #9294A4",
"@+	c #9599B4",
"#+	c #989BB6",
"$+	c #9CA0BA",
"%+	c #8E93AF",
"&+	c #878BA9",
"*+	c #767C9A",
"=+	c #434557",
"-+	c #404252",
";+	c #A6A9C0",
">+	c #A4A7BE",
",+	c #8388A6",
"'+	c #8185A4",
")+	c #888DA9",
"!+	c #B7BACC",
"~+	c #656A84",
"{+	c #343647",
"]+	c #747997",
"^+	c #727792",
"/+	c #A7ABBF",
"(+	c #AEB2C4",
"_+	c #898DA5",
":+	c #6B7290",
"<+	c #3E4156",
"[+	c #22232E",
"}+	c #69718F",
"                                                ",
"                .                               ",
"        + @ # $ % & * = -                       ",
"        ; > , ' ) ! ~ { ]                       ",
"    ^ / ( _ : < [ } | 1 2 { 3                   ",
"    4 5 6 7 8 9 0 a 8 b c d e                   ",
"      f g h i j k l m n o p                     ",
"  q r s t u v       w x y z A B                 ",
"  C D E F G H       I J K L M N                 ",
"    O P Q R S T U V W X Y Z `                   ",
"     ...u +.@.#.#.#.$.%.&.*.=.                  ",
"    -.;.>.,.'.#.#.#.).!.~.{.].                  ",
"        ^./.(._.:._.<.[.}.  |.    1.            ",
"        2.3.4.5.6.7.8.9.0.  a.b.c.d.e.f.        ",
"                g.h.    i.j.k.l.m.m.m.n.o.p.    ",
"                q.      r.s.t.u.v.w.x.y.z.A.    ",
"                          B.C.D.E.  F.G.H.I.    ",
"                      J.K.L.M.N.    O.P.Q.R.S.  ",
"                        T.U.V.W.X.Y.Z.`. +.+    ",
"                        ++@+p p #+$+%+&+w *+    ",
"                        =+-+;+>+,+'+)+!+~+{+    ",
"                            ]+^+/+(+_+:+<+      ",
"                            [+    }+            ",
"                                                "};
