/* XPM */
static const char * zoom_out_xpm[] = {
"24 24 162 2",
"  	c None",
". 	c #B2B2B2",
"+ 	c #B3B3B4",
"@ 	c #B7B7B7",
"# 	c #ACACAC",
"$ 	c #C6C6C6",
"% 	c #D1D1D1",
"& 	c #DBDBDC",
"* 	c #E1E1E1",
"= 	c #DDDDDE",
"- 	c #DADADA",
"; 	c #CDCDCE",
"> 	c #AFAFAF",
", 	c #D1D1D2",
"' 	c #F5F5F5",
") 	c #FAFAFA",
"! 	c #FAFAFB",
"~ 	c #F8F8F9",
"{ 	c #F1F1F2",
"] 	c #DDDDDD",
"^ 	c #CFCFD0",
"/ 	c #F6F6F6",
"( 	c #F7F7F8",
"_ 	c #F8F8F8",
": 	c #F7F7F7",
"< 	c #F3F3F4",
"[ 	c #E3E3E4",
"} 	c #C5C5C6",
"| 	c #FBFBFB",
"1 	c #F6F6F7",
"2 	c #F4F4F5",
"3 	c #EDEDEE",
"4 	c #E6E6E7",
"5 	c #B5B5B5",
"6 	c #E1E1E2",
"7 	c #F5F5F6",
"8 	c #FBFBFC",
"9 	c #F9F9FA",
"0 	c #F6F6F8",
"a 	c #F2F2F3",
"b 	c #E8E8E9",
"c 	c #BDBDBE",
"d 	c #F5F5F7",
"e 	c #F4F4F6",
"f 	c #EAEAEB",
"g 	c #EEEEF0",
"h 	c #F3F3F5",
"i 	c #F2F2F5",
"j 	c #F1F1F3",
"k 	c #E9E9EB",
"l 	c #E0E0E1",
"m 	c #CBCBCB",
"n 	c #E8E8EB",
"o 	c #EDEDF0",
"p 	c #F0F0F2",
"q 	c #F2F2F4",
"r 	c #F3F3F6",
"s 	c #F0F0F3",
"t 	c #E9E9ED",
"u 	c #E6E6E9",
"v 	c #DCDCDD",
"w 	c #E7E7EA",
"x 	c #EFEFF2",
"y 	c #F1F1F4",
"z 	c #EEEEF1",
"A 	c #ECECEF",
"B 	c #E9E9EC",
"C 	c #D5D5D5",
"D 	c #E1E1E4",
"E 	c #ECECF0",
"F 	c #E4E4E6",
"G 	c #D8D8D9",
"H 	c #EBEBED",
"I 	c #F7F7F9",
"J 	c #D0D0D0",
"K 	c #E2E2E3",
"L 	c #EFEFF1",
"M 	c #FCFCFC",
"N 	c #C5C4C4",
"O 	c #A1A09E",
"P 	c #EDEDED",
"Q 	c #F3F3F3",
"R 	c #9E9E9E",
"S 	c #9B9B99",
"T 	c #A2A29F",
"U 	c #E2E2E2",
"V 	c #E5E5E4",
"W 	c #E4E4E4",
"X 	c #D7D7D7",
"Y 	c #999999",
"Z 	c #6B6B6A",
"` 	c #7F7F7F",
" .	c #4F4F4F",
"..	c #646464",
"+.	c #7B7B7B",
"@.	c #6291C9",
"#.	c #6896CB",
"$.	c #6A98CC",
"%.	c #6594CA",
"&.	c #717171",
"*.	c #484848",
"=.	c #525252",
"-.	c #676767",
";.	c #417EC0",
">.	c #3678BF",
",.	c #709FD2",
"'.	c #91B5DC",
").	c #3478C0",
"!.	c #4481C3",
"~.	c #606060",
"{.	c #393939",
"].	c #404040",
"^.	c #515151",
"/.	c #2E77C1",
"(.	c #4185C9",
"_.	c #A0C3E5",
":.	c #BFD7EE",
"<.	c #4A8DCD",
"[.	c #387FC6",
"}.	c #545454",
"|.	c #303030",
"1.	c #363636",
"2.	c #3A3A3A",
"3.	c #5396D4",
"4.	c #CDE2F4",
"5.	c #ECF4FB",
"6.	c #F2F8FD",
"7.	c #D9EAF8",
"8.	c #74ADDF",
"9.	c #454545",
"0.	c #282828",
"a.	c #232323",
"b.	c #1F1F1F",
"c.	c #4899DD",
"d.	c #61AEEA",
"e.	c #B1D9F7",
"f.	c #CBE6FA",
"g.	c #6BB6EF",
"h.	c #54A4E5",
"i.	c #353535",
"j.	c #1B1B1B",
"k.	c #101010",
"l.	c #080808",
"m.	c #5AACEC",
"n.	c #68BBF6",
"o.	c #A3DAFE",
"p.	c #BAE5FF",
"q.	c #72C4FB",
"r.	c #63B6F2",
"s.	c #262626",
"t.	c #111111",
"u.	c #020202",
"v.	c #7CA7C4",
"w.	c #93C1DA",
"x.	c #9CC7DE",
"y.	c #86ADC6",
"z.	c #7C93A3",
"A.	c #767677",
"B.	c #434343",
"C.	c #323232",
"D.	c #848383",
"E.	c #88888A",
"            . . + @                             ",
"        # $ % & * = - ;                         ",
"      > , ' ) ) ! ) ~ { ]                       ",
"    . ^ / ( _ ~ ~ _ : / < [                     ",
"    } { ( | ) ~ ~ ~ ~ 1 2 3 4                   ",
"  5 6 7 _ 8 9 0 0 0 0 1 7 a b                   ",
"  c 3 7 d 0 d d d d 7 e e < f 6                 ",
"  ^ g h e d d d d d e e i j k l                 ",
"  m n o p q r e e r q s o t u v                 ",
"  ; w o x s q h i y p z A t B C                 ",
"    D x y h d 1 d e q s z E F                   ",
"    G H r 1 I 9 ~ ( e q x A J                   ",
"      K L I ! M 8 9 0 r j N O                   ",
"        b P Q ) ! ~ e f C R S T                 ",
"            U V W U X       Y Z `               ",
"                               ...+.            ",
"    @.#.$.%.                  &.*.=.-.          ",
"  ;.>.,.'.).!.                  ~.{.].^.        ",
"  /.(._.:.<.[.                    }.|.1.2.      ",
"  3.4.5.6.7.8.                      9.0.a.b.    ",
"  c.d.e.f.g.h.                        i.j.k.l.  ",
"  m.n.o.p.q.r.                          s.t.u.  ",
"    v.w.x.y.z.                          A.B.C.  ",
"            D.E.E.E.E.E.E.E.E.E.E.E.            "};
